<?xml version="1.0" encoding="UTF-8"?>
<svg width="18px" height="18px" viewBox="0 0 18 18" version="1.1" xmlns="http://www.w3.org/2000/svg" xmlns:xlink="http://www.w3.org/1999/xlink">
    <!-- Generator: sketchtool 60.1 (101010) - https://sketch.com -->
    <title>250BBEA1-5493-4505-978E-72377818511E</title>
    <desc>Created with sketchtool.</desc>
    <g id="UI-Elements" stroke="none" stroke-width="1" fill="none" fill-rule="evenodd">
        <g id="[UI]-Icons" transform="translate(-341.000000, -692.000000)">
            <g id="ban-solid" transform="translate(339.000000, 690.000000)">
                <path d="M10.94,2 C6.01064286,2 2,6.01064286 2,10.94 C2,15.8693571 6.01064286,19.88 10.94,19.88 C15.8693571,19.88 19.88,15.8693571 19.88,10.94 C19.88,6.01064286 15.8693571,2 10.94,2 Z M10.94,3.37538462 C15.1252527,3.37538462 18.5046154,6.75474794 18.5046154,10.94 C18.5046154,12.8150364 17.8249821,14.5208352 16.6994231,15.8398077 L6.14764423,5.073125 C7.45049863,4.00666484 9.11869025,3.37538462 10.94,3.37538462 Z M5.18057692,6.04019231 L15.7323558,16.806875 C14.4295014,17.8733352 12.7613104,18.5046154 10.94,18.5046154 C6.75474794,18.5046154 3.37538462,15.1252527 3.37538462,10.94 C3.37538462,9.06496429 4.05501786,7.35916484 5.18057692,6.04019231 Z" id="Shape" fill="#000000" fill-rule="nonzero"></path>
                <polygon id="Path" points="0 0 22 0 22 22 0 22"></polygon>
            </g>
        </g>
    </g>
</svg>