<svg xmlns="http://www.w3.org/2000/svg" width="20" height="26" viewBox="0 0 20 26">
  <path d="M10,0 C8.894531,0 8,0.894531 8,2 C8,2.085938 8.019531,2.167969 8.03125,2.25 C4.574219,3.132813 2,6.273438 2,10 L2,19 C2,19.566406 1.566406,20 1,20 L0,20 L0,22 L7.1875,22 C7.074219,22.316406 7,22.648438 7,23 C7,24.644531 8.355469,26 10,26 C11.644531,26 13,24.644531 13,23 C13,22.648438 12.925781,22.316406 12.8125,22 L20,22 L20,20 L19,20 C18.433594,20 18,19.566406 18,19 L18,10.28125 C18,6.523438 15.488281,3.171875 11.96875,2.25 C11.980469,2.167969 12,2.085938 12,2 C12,0.894531 11.105469,0 10,0 Z M9.5625,4 C9.707031,3.988281 9.851563,4 10,4 C10.0625,4 10.125,4 10.1875,4 C13.453125,4.097656 16,6.960938 16,10.28125 L16,19 C16,19.351563 16.074219,19.683594 16.1875,20 L3.8125,20 C3.925781,19.683594 4,19.351563 4,19 L4,10 C4,6.824219 6.445313,4.226563 9.5625,4 Z M10,22 C10.5625,22 11,22.4375 11,23 C11,23.5625 10.5625,24 10,24 C9.4375,24 9,23.5625 9,23 C9,22.4375 9.4375,22 10,22 Z"/>
</svg>
