<?xml version="1.0" encoding="UTF-8"?>
<svg width="14px" height="18px" viewBox="0 0 14 18" version="1.1" xmlns="http://www.w3.org/2000/svg" xmlns:xlink="http://www.w3.org/1999/xlink">
    <!-- Generator: sketchtool 60.1 (101010) - https://sketch.com -->
    <title>6AB0CD60-2783-46F6-8141-AAB5773CE09C</title>
    <desc>Created with sketchtool.</desc>
    <g id="UI-Elements" stroke="none" stroke-width="1" fill="none" fill-rule="evenodd">
        <g id="[UI]-Icons" transform="translate(-219.000000, -258.000000)">
            <g id="bell" transform="translate(215.000000, 256.000000)">
                <path d="M10.875,2 C10.1149901,2 9.5,2.61499006 9.5,3.375 C9.5,3.43408238 9.51342756,3.49047869 9.52148438,3.546875 C7.14477556,4.15380894 5.375,6.31298863 5.375,8.875 L5.375,15.0625 C5.375,15.4519041 5.07690412,15.75 4.6875,15.75 L4,15.75 L4,17.125 L8.94140625,17.125 C8.86352556,17.3425291 8.8125,17.5708011 8.8125,17.8125 C8.8125,18.9431151 9.74438494,19.875 10.875,19.875 C12.0056151,19.875 12.9375,18.9431151 12.9375,17.8125 C12.9375,17.5708011 12.8864744,17.3425291 12.8085938,17.125 L17.75,17.125 L17.75,15.75 L17.0625,15.75 C16.6730959,15.75 16.375,15.4519041 16.375,15.0625 L16.375,9.06835938 C16.375,6.48486363 14.6481932,4.18066406 12.2285156,3.546875 C12.2365724,3.49047869 12.25,3.43408238 12.25,3.375 C12.25,2.61499006 11.6350099,2 10.875,2 Z M10.5742188,4.75 C10.6735838,4.74194319 10.7729496,4.75 10.875,4.75 C10.9179688,4.75 10.9609375,4.75 11.0039062,4.75 C13.2490234,4.8171385 15,6.78564488 15,9.06835938 L15,15.0625 C15,15.3041996 15.0510256,15.5324709 15.1289062,15.75 L6.62109375,15.75 C6.69897444,15.5324709 6.75,15.3041996 6.75,15.0625 L6.75,8.875 C6.75,6.69165056 8.43115269,4.90576206 10.5742188,4.75 Z M10.875,17.125 C11.2617188,17.125 11.5625,17.4257812 11.5625,17.8125 C11.5625,18.1992188 11.2617188,18.5 10.875,18.5 C10.4882812,18.5 10.1875,18.1992188 10.1875,17.8125 C10.1875,17.4257812 10.4882812,17.125 10.875,17.125 Z" id="Shape" fill="#000000" fill-rule="nonzero"></path>
                <polygon id="Path" points="0 0 22 0 22 22 0 22"></polygon>
            </g>
        </g>
    </g>
</svg>