<svg xmlns="http://www.w3.org/2000/svg" width="26" height="23" viewBox="0 0 26 23">
  <path d="M13,0 C11.136719,0 9.601563,1.277344 9.15625,3 L0,3 L0,23 L26,23 L26,3 L16.84375,3 C16.398438,1.277344 14.863281,0 13,0 Z M13,2 C13.808594,2 14.429688,2.386719 14.75,3 L11.25,3 C11.570313,2.386719 12.191406,2 13,2 Z M2,5 L24,5 L24,14 L2,14 L2,5 Z M13,11 C12.449219,11 12,11.449219 12,12 C12,12.550781 12.449219,13 13,13 C13.550781,13 14,12.550781 14,12 C14,11.449219 13.550781,11 13,11 Z M2,16 L24,16 L24,21 L2,21 L2,16 Z"/>
</svg>
