<?xml version="1.0" encoding="UTF-8"?>
<svg width="18px" height="16px" viewBox="0 0 18 16" version="1.1" xmlns="http://www.w3.org/2000/svg" xmlns:xlink="http://www.w3.org/1999/xlink">
    <!-- Generator: sketchtool 60.1 (101010) - https://sketch.com -->
    <title>8D9CD4BC-97D5-4075-B47B-3BCC7056434B</title>
    <desc>Created with sketchtool.</desc>
    <g id="UI-Elements" stroke="none" stroke-width="1" fill="none" fill-rule="evenodd">
        <g id="[UI]-Icons" transform="translate(-403.000000, -259.000000)">
            <g id="briefcase-solid" transform="translate(401.000000, 256.000000)">
                <path d="M10.94,3 C9.65863599,3 8.60292102,3.87841964 8.29668269,5.06307692 L2,5.06307692 L2,18.8169231 L19.88,18.8169231 L19.88,5.06307692 L13.5833173,5.06307692 C13.2770797,3.87841964 12.221364,3 10.94,3 Z M10.94,4.37538462 C11.4960639,4.37538462 11.9231854,4.6413283 12.1434615,5.06307692 L9.73653846,5.06307692 C9.95681525,4.6413283 10.3839361,4.37538462 10.94,4.37538462 Z M3.37538462,6.43846154 L18.5046154,6.43846154 L18.5046154,12.6276923 L3.37538462,12.6276923 L3.37538462,6.43846154 Z M10.94,10.5646154 C10.5612321,10.5646154 10.2523077,10.8735398 10.2523077,11.2523077 C10.2523077,11.6310755 10.5612321,11.94 10.94,11.94 C11.3187679,11.94 11.6276923,11.6310755 11.6276923,11.2523077 C11.6276923,10.8735398 11.3187679,10.5646154 10.94,10.5646154 Z M3.37538462,14.0030769 L18.5046154,14.0030769 L18.5046154,17.4415385 L3.37538462,17.4415385 L3.37538462,14.0030769 Z" id="Shape" fill="#000000" fill-rule="nonzero"></path>
                <polygon id="Path" points="0 0 22 0 22 22 0 22"></polygon>
            </g>
        </g>
    </g>
</svg>