<?xml version="1.0" encoding="UTF-8"?>
<svg width="17px" height="18px" viewBox="0 0 17 18" version="1.1" xmlns="http://www.w3.org/2000/svg" xmlns:xlink="http://www.w3.org/1999/xlink">
    <!-- Generator: sketchtool 60.1 (101010) - https://sketch.com -->
    <title>FED0BA4A-92AD-47E7-8774-D0C0A15038A9</title>
    <desc>Created with sketchtool.</desc>
    <g id="UI-Elements" stroke="none" stroke-width="1" fill="none" fill-rule="evenodd">
        <g id="[UI]-Icons" transform="translate(-280.000000, -258.000000)">
            <g id="building" transform="translate(277.000000, 256.000000)">
                <path d="M3,2 L3,19.875 L10.5625,19.875 L10.5625,17.125 L11.9375,17.125 L11.9375,19.875 L19.5,19.875 L19.5,2 L3,2 Z M4.375,3.375 L18.125,3.375 L18.125,18.5 L13.3125,18.5 L13.3125,15.75 L9.1875,15.75 L9.1875,18.5 L4.375,18.5 L4.375,3.375 Z M5.75,4.75 L5.75,6.125 L8.5,6.125 L8.5,4.75 L5.75,4.75 Z M9.875,4.75 L9.875,6.125 L12.625,6.125 L12.625,4.75 L9.875,4.75 Z M14,4.75 L14,6.125 L16.75,6.125 L16.75,4.75 L14,4.75 Z M5.75,7.5 L5.75,8.875 L8.5,8.875 L8.5,7.5 L5.75,7.5 Z M9.875,7.5 L9.875,8.875 L12.625,8.875 L12.625,7.5 L9.875,7.5 Z M14,7.5 L14,8.875 L16.75,8.875 L16.75,7.5 L14,7.5 Z M5.75,10.25 L5.75,11.625 L8.5,11.625 L8.5,10.25 L5.75,10.25 Z M9.875,10.25 L9.875,11.625 L12.625,11.625 L12.625,10.25 L9.875,10.25 Z M14,10.25 L14,11.625 L16.75,11.625 L16.75,10.25 L14,10.25 Z M5.75,13 L5.75,14.375 L8.5,14.375 L8.5,13 L5.75,13 Z M9.875,13 L9.875,14.375 L12.625,14.375 L12.625,13 L9.875,13 Z M14,13 L14,14.375 L16.75,14.375 L16.75,13 L14,13 Z M5.75,15.75 L5.75,17.125 L8.5,17.125 L8.5,15.75 L5.75,15.75 Z M14,15.75 L14,17.125 L16.75,17.125 L16.75,15.75 L14,15.75 Z" id="Shape" fill="#000000" fill-rule="nonzero"></path>
                <polygon id="Path" points="0 0 22 0 22 22 0 22"></polygon>
            </g>
        </g>
    </g>
</svg>