<svg xmlns="http://www.w3.org/2000/svg" width="24" height="26" viewBox="0 0 24 26">
  <path d="M0,0 L0,26 L11,26 L11,22 L13,22 L13,26 L24,26 L24,0 L0,0 Z M2,2 L22,2 L22,24 L15,24 L15,20 L9,20 L9,24 L2,24 L2,2 Z M4,4 L4,6 L8,6 L8,4 L4,4 Z M10,4 L10,6 L14,6 L14,4 L10,4 Z M16,4 L16,6 L20,6 L20,4 L16,4 Z M4,8 L4,10 L8,10 L8,8 L4,8 Z M10,8 L10,10 L14,10 L14,8 L10,8 Z M16,8 L16,10 L20,10 L20,8 L16,8 Z M4,12 L4,14 L8,14 L8,12 L4,12 Z M10,12 L10,14 L14,14 L14,12 L10,12 Z M16,12 L16,14 L20,14 L20,12 L16,12 Z M4,16 L4,18 L8,18 L8,16 L4,16 Z M10,16 L10,18 L14,18 L14,16 L10,16 Z M16,16 L16,18 L20,18 L20,16 L16,16 Z M4,20 L4,22 L8,22 L8,20 L4,20 Z M16,20 L16,22 L20,22 L20,20 L16,20 Z"/>
</svg>
