<?xml version="1.0" encoding="UTF-8"?>
<svg width="16px" height="16px" viewBox="0 0 16 16" version="1.1" xmlns="http://www.w3.org/2000/svg" xmlns:xlink="http://www.w3.org/1999/xlink">
    <!-- Generator: sketchtool 60.1 (101010) - https://sketch.com -->
    <title>5DFDEA3D-3256-4A9E-9D01-6463328DE9D1</title>
    <desc>Created with sketchtool.</desc>
    <g id="UI-Elements" stroke="none" stroke-width="1" fill="none" fill-rule="evenodd">
        <g id="[UI]-Icons" transform="translate(-342.000000, -259.000000)">
            <g id="calendar" transform="translate(339.000000, 256.000000)">
                <path d="M5.75090909,3 L5.75090909,3.68772727 L3,3.68772727 L3,18.8177273 L18.13,18.8177273 L18.13,3.68772727 L15.3790909,3.68772727 L15.3790909,3 L14.0036364,3 L14.0036364,3.68772727 L7.12636364,3.68772727 L7.12636364,3 L5.75090909,3 Z M4.37545455,5.06318182 L5.75090909,5.06318182 L5.75090909,5.75090909 L7.12636364,5.75090909 L7.12636364,5.06318182 L14.0036364,5.06318182 L14.0036364,5.75090909 L15.3790909,5.75090909 L15.3790909,5.06318182 L16.7545455,5.06318182 L16.7545455,6.43863636 L4.37545455,6.43863636 L4.37545455,5.06318182 Z M4.37545455,7.81409091 L16.7545455,7.81409091 L16.7545455,17.4422727 L4.37545455,17.4422727 L4.37545455,7.81409091 Z M8.50181818,9.18954545 L8.50181818,10.565 L9.87727273,10.565 L9.87727273,9.18954545 L8.50181818,9.18954545 Z M11.2527273,9.18954545 L11.2527273,10.565 L12.6281818,10.565 L12.6281818,9.18954545 L11.2527273,9.18954545 Z M14.0036364,9.18954545 L14.0036364,10.565 L15.3790909,10.565 L15.3790909,9.18954545 L14.0036364,9.18954545 Z M5.75090909,11.9404545 L5.75090909,13.3159091 L7.12636364,13.3159091 L7.12636364,11.9404545 L5.75090909,11.9404545 Z M8.50181818,11.9404545 L8.50181818,13.3159091 L9.87727273,13.3159091 L9.87727273,11.9404545 L8.50181818,11.9404545 Z M11.2527273,11.9404545 L11.2527273,13.3159091 L12.6281818,13.3159091 L12.6281818,11.9404545 L11.2527273,11.9404545 Z M14.0036364,11.9404545 L14.0036364,13.3159091 L15.3790909,13.3159091 L15.3790909,11.9404545 L14.0036364,11.9404545 Z M5.75090909,14.6913636 L5.75090909,16.0668182 L7.12636364,16.0668182 L7.12636364,14.6913636 L5.75090909,14.6913636 Z M8.50181818,14.6913636 L8.50181818,16.0668182 L9.87727273,16.0668182 L9.87727273,14.6913636 L8.50181818,14.6913636 Z M11.2527273,14.6913636 L11.2527273,16.0668182 L12.6281818,16.0668182 L12.6281818,14.6913636 L11.2527273,14.6913636 Z" id="Shape" fill="#000000" fill-rule="nonzero"></path>
                <polygon id="Path" points="0 0 22 0 22 22 0 22"></polygon>
            </g>
        </g>
    </g>
</svg>