<svg xmlns="http://www.w3.org/2000/svg" width="24" height="24" viewBox="0 0 24 24">
  <path d="M24,0.0625 L22.375,1.3125 L17.75,4.9375 L12.15625,4 L11.78125,3.9375 L11.4375,4.15625 L5.75,7.9375 L1.1875,7.03125 L0,6.78125 L0,24 L24,24 L24,0.0625 Z M22,4.15625 L22,9.53125 L17.78125,12.875 L12.3125,11.0625 L11.84375,10.90625 L11.4375,11.15625 L5.875,14.875 L2,13.3125 L2,9.21875 L5.8125,9.96875 L6.21875,10.0625 L6.5625,9.84375 L12.21875,6.0625 L17.84375,7 L18.28125,7.0625 L18.625,6.78125 L22,4.15625 Z M22,12.09375 L22,22 L2,22 L2,15.5 L5.625,16.9375 L6.125,17.125 L6.5625,16.84375 L12.1875,13.09375 L17.6875,14.9375 L18.1875,15.125 L18.625,14.78125 L22,12.09375 Z"/>
</svg>
