<?xml version="1.0" encoding="UTF-8"?>
<svg width="17px" height="17px" viewBox="0 0 17 17" version="1.1" xmlns="http://www.w3.org/2000/svg" xmlns:xlink="http://www.w3.org/1999/xlink">
    <!-- Generator: sketchtool 60.1 (101010) - https://sketch.com -->
    <title>5F96F04F-785E-4F62-82B7-3CDCFD2E59A1</title>
    <desc>Created with sketchtool.</desc>
    <g id="UI-Elements" stroke="none" stroke-width="1" fill="none" fill-rule="evenodd">
        <g id="[UI]-Icons" transform="translate(-528.000000, -259.000000)">
            <g id="chart-area-solid" transform="translate(525.000000, 256.000000)">
                <path d="M19.5,3 L18.3828125,3.859375 L15.203125,6.3515625 L11.3574219,5.70703125 L11.0996094,5.6640625 L10.8632812,5.81445312 L6.953125,8.4140625 L3.81640625,7.79101562 L3,7.61914062 L3,19.4570312 L19.5,19.4570312 L19.5,3 Z M18.125,5.81445312 L18.125,9.50976562 L15.2246094,11.8085938 L11.4648438,10.5625 L11.1425781,10.4550781 L10.8632812,10.6269531 L7.0390625,13.1835938 L4.375,12.109375 L4.375,9.29492188 L6.99609375,9.81054688 L7.27539062,9.875 L7.51171875,9.72460938 L11.4003906,7.125 L15.2675781,7.76953125 L15.5683594,7.8125 L15.8046875,7.61914062 L18.125,5.81445312 Z M18.125,11.2714844 L18.125,18.0820312 L4.375,18.0820312 L4.375,13.6132812 L6.8671875,14.6015625 L7.2109375,14.7304688 L7.51171875,14.5371094 L11.3789062,11.9589844 L15.1601562,13.2265625 L15.5039062,13.3554688 L15.8046875,13.1191406 L18.125,11.2714844 Z" id="Shape" fill="#000000" fill-rule="nonzero"></path>
                <polygon id="Path" points="0 0 22 0 22 22 0 22"></polygon>
            </g>
        </g>
    </g>
</svg>