<?xml version="1.0" encoding="UTF-8"?>
<svg width="18px" height="18px" viewBox="0 0 18 18" version="1.1" xmlns="http://www.w3.org/2000/svg" xmlns:xlink="http://www.w3.org/1999/xlink">
    <!-- Generator: sketchtool 60.1 (101010) - https://sketch.com -->
    <title>C791F603-954F-4EDD-BE33-80E93C9B9C1E</title>
    <desc>Created with sketchtool.</desc>
    <g id="UI-Elements" stroke="none" stroke-width="1" fill="none" fill-rule="evenodd">
        <g id="[UI]-Icons" transform="translate(-465.000000, -258.000000)">
            <g id="check-circle" transform="translate(463.000000, 256.000000)">
                <path d="M10.94,2 C5.98915247,2 2,5.98915247 2,10.94 C2,15.8908475 5.98915247,19.88 10.94,19.88 C15.8908475,19.88 19.88,15.8908475 19.88,10.94 C19.88,9.97830563 19.7510577,9.0192967 19.4072115,8.12475962 L18.2897115,9.22076923 C18.4267129,9.77146016 18.5046154,10.3221518 18.5046154,10.94 C18.5046154,15.1359979 15.1359979,18.5046154 10.94,18.5046154 C6.74400275,18.5046154 3.37538462,15.1359979 3.37538462,10.94 C3.37538462,6.74400275 6.74400275,3.37538462 10.94,3.37538462 C13.0030769,3.37538462 14.8566229,4.19739217 16.1621635,5.50293269 L17.1292308,4.53586538 C15.5470014,2.95363599 13.3469231,2 10.94,2 Z M18.6980288,4.94418269 L10.94,12.7022115 L7.99581731,9.75802885 L7.00725962,10.7465865 L10.4457212,14.1850481 L10.94,14.6578365 L11.4342788,14.1850481 L19.6865865,5.93274038 L18.6980288,4.94418269 Z" id="Shape" fill="#000000" fill-rule="nonzero"></path>
                <polygon id="Path" points="0 0 22 0 22 22 0 22"></polygon>
            </g>
        </g>
    </g>
</svg>