<svg xmlns="http://www.w3.org/2000/svg" width="26" height="26" viewBox="0 0 26 26">
  <path d="M13,0 C5.800781,0 0,5.800781 0,13 C0,20.199219 5.800781,26 13,26 C20.199219,26 26,20.199219 26,13 C26,11.601563 25.8125,10.207031 25.3125,8.90625 L23.6875,10.5 C23.886719,11.300781 24,12.101563 24,13 C24,19.101563 19.101563,24 13,24 C6.898438,24 2,19.101563 2,13 C2,6.898438 6.898438,2 13,2 C16,2 18.695313,3.195313 20.59375,5.09375 L22,3.6875 C19.699219,1.386719 16.5,0 13,0 Z M24.28125,4.28125 L13,15.5625 L8.71875,11.28125 L7.28125,12.71875 L12.28125,17.71875 L13,18.40625 L13.71875,17.71875 L25.71875,5.71875 L24.28125,4.28125 Z"/>
</svg>
