<?xml version="1.0" encoding="UTF-8"?>
<svg width="16px" height="19px" viewBox="0 0 16 19" version="1.1" xmlns="http://www.w3.org/2000/svg" xmlns:xlink="http://www.w3.org/1999/xlink">
    <!-- Generator: sketchtool 60.1 (101010) - https://sketch.com -->
    <title>F72A7F99-3941-48AF-8212-AA736BDC08ED</title>
    <desc>Created with sketchtool.</desc>
    <g id="UI-Elements" stroke="none" stroke-width="1" fill="none" fill-rule="evenodd">
        <g id="[UI]-Icons" transform="translate(-590.000000, -630.000000)">
            <g id="clipboard-list-solid" transform="translate(587.000000, 628.000000)">
                <path d="M10.565,2 C9.69846364,2 9.08649365,2.61207727 8.78389365,3.37545455 L3,3.37545455 L3,20.5686364 L18.13,20.5686364 L18.13,3.37545455 L12.3461064,3.37545455 C12.0435064,2.61207727 11.4315364,2 10.565,2 Z M10.565,3.37545455 C10.94325,3.37545455 11.2527273,3.68493182 11.2527273,4.06318182 L11.2527273,4.75090909 L13.3159091,4.75090909 L13.3159091,6.12636364 L7.81409091,6.12636364 L7.81409091,4.75090909 L9.87727273,4.75090909 L9.87727273,4.06318182 C9.87727273,3.68493182 10.18675,3.37545455 10.565,3.37545455 Z M4.37545455,4.75090909 L6.43863636,4.75090909 L6.43863636,7.50181818 L14.6913636,7.50181818 L14.6913636,4.75090909 L16.7545455,4.75090909 L16.7545455,19.1931818 L4.37545455,19.1931818 L4.37545455,4.75090909 Z M5.75090909,9.565 L5.75090909,10.9404545 L7.12636364,10.9404545 L7.12636364,9.565 L5.75090909,9.565 Z M8.50181818,9.565 L8.50181818,10.9404545 L15.3790909,10.9404545 L15.3790909,9.565 L8.50181818,9.565 Z M5.75090909,12.3159091 L5.75090909,13.6913636 L7.12636364,13.6913636 L7.12636364,12.3159091 L5.75090909,12.3159091 Z M8.50181818,12.3159091 L8.50181818,13.6913636 L15.3790909,13.6913636 L15.3790909,12.3159091 L8.50181818,12.3159091 Z M5.75090909,15.0668182 L5.75090909,16.4422727 L7.12636364,16.4422727 L7.12636364,15.0668182 L5.75090909,15.0668182 Z M8.50181818,15.0668182 L8.50181818,16.4422727 L15.3790909,16.4422727 L15.3790909,15.0668182 L8.50181818,15.0668182 Z" id="Shape" fill="#000000" fill-rule="nonzero"></path>
                <polygon id="Path" points="0 0 22 0 22 22 0 22"></polygon>
            </g>
        </g>
    </g>
</svg>