<?xml version="1.0" encoding="UTF-8"?>
<svg width="18px" height="19px" viewBox="0 0 18 19" version="1.1" xmlns="http://www.w3.org/2000/svg" xmlns:xlink="http://www.w3.org/1999/xlink">
    <!-- Generator: Sketch 59.1 (86144) - https://sketch.com -->
    <title>close-circle</title>
    <desc>Created with Sketch.</desc>
    <g id="UI-Elements" stroke="none" stroke-width="1" fill="none" fill-rule="evenodd">
        <g id="[UI]-Icons" transform="translate(-451.000000, -308.000000)" fill="#252631" fill-rule="nonzero">
            <g id="icons" transform="translate(151.750000, 259.210938)">
                <g id="close-circle" transform="translate(299.312500, 49.601562)">
                    <path d="M2.62109375,2.62109375 C4.36849832,0.87368918 6.47394602,0 8.9375,0 C11.401054,0 13.5065017,0.87368918 15.2539062,2.62109375 C17.0013108,4.36849832 17.875,6.47394602 17.875,8.9375 C17.875,11.401054 17.0013108,13.5065017 15.2539062,15.2539062 C13.5065017,17.0013108 11.401054,17.875 8.9375,17.875 C6.47394602,17.875 4.36849832,17.0013108 2.62109375,15.2539062 C0.87368918,13.5065017 0,11.401054 0,8.9375 C0,6.47394602 0.87368918,4.36849832 2.62109375,2.62109375 Z M14.265625,3.609375 C12.8046802,2.11978422 11.0286563,1.375 8.9375,1.375 C6.84634371,1.375 5.06315842,2.11262283 3.58789062,3.58789062 C2.11262283,5.06315842 1.375,6.84634371 1.375,8.9375 C1.375,11.0286563 2.11262283,12.8118416 3.58789062,14.2871094 C5.06315842,15.7623772 6.84634371,16.5 8.9375,16.5 C11.0286563,16.5 12.8118416,15.7623772 14.2871094,14.2871094 C15.7623772,12.8118416 16.5,11.0286563 16.5,8.9375 C16.5,6.84634371 15.7552158,5.0703198 14.265625,3.609375 Z M6.359375,5.328125 L8.9375,7.94921875 L11.515625,5.328125 L12.546875,6.359375 L9.92578125,8.9375 L12.546875,11.515625 L11.515625,12.546875 L8.9375,9.92578125 L6.359375,12.546875 L5.328125,11.515625 L7.94921875,8.9375 L5.328125,6.359375 L6.359375,5.328125 Z" id="ïƒ"></path>
                </g>
            </g>
        </g>
    </g>
</svg>