<svg xmlns="http://www.w3.org/2000/svg" width="28" height="24" viewBox="0 0 28 24">
  <path d="M14,0 C11.351563,0 9.050781,1.238281 7.40625,3.0625 C7.269531,3.046875 7.148438,3 7,3 C4.800781,3 3,4.800781 3,7 C1.269531,8.054688 0,9.835938 0,12 C0,15.300781 2.699219,18 6,18 L11,18 L11,16 L6,16 C3.78125,16 2,14.21875 2,12 C2,10.339844 3.007813,8.921875 4.4375,8.3125 L5.125,8.03125 L5.03125,7.28125 C5.011719,7.117188 5,7.023438 5,7 C5,5.882813 5.882813,5 7,5 C7.140625,5 7.296875,5.019531 7.46875,5.0625 L8.09375,5.21875 L8.46875,4.71875 C9.75,3.074219 11.75,2 14,2 C17.277344,2 20.011719,4.253906 20.78125,7.28125 L20.96875,8.0625 L21.8125,8.03125 C22.023438,8.019531 22.070313,8 22,8 C24.21875,8 26,9.78125 26,12 C26,14.21875 24.21875,16 22,16 L17,16 L17,18 L22,18 C25.300781,18 28,15.300781 28,12 C28,8.84375 25.511719,6.316406 22.40625,6.09375 C21.183594,2.574219 17.925781,0 14,0 Z M13,12 L13,20 L10,20 L14,24 L18,20 L15,20 L15,12 L13,12 Z"/>
</svg>
