<?xml version="1.0" encoding="UTF-8"?>
<svg width="20px" height="17px" viewBox="0 0 20 17" version="1.1" xmlns="http://www.w3.org/2000/svg" xmlns:xlink="http://www.w3.org/1999/xlink">
    <!-- Generator: sketchtool 60.1 (101010) - https://sketch.com -->
    <title>DCD645EA-37E4-41C1-8C26-C9FBF061C733</title>
    <desc>Created with sketchtool.</desc>
    <g id="UI-Elements" stroke="none" stroke-width="1" fill="none" fill-rule="evenodd">
        <g id="[UI]-Icons" transform="translate(-216.000000, -383.000000)">
            <g id="cloud-download-alt-solid" transform="translate(215.000000, 380.000000)">
                <path d="M10.625,3 C8.80419956,3 7.22241194,3.85131819 6.09179687,5.10546875 C5.99780256,5.09472656 5.91455113,5.0625 5.8125,5.0625 C4.30053694,5.0625 3.0625,6.30053694 3.0625,7.8125 C1.87280256,8.537598 1,9.76220738 1,11.25 C1,13.5192869 2.85571306,15.375 5.125,15.375 L8.5625,15.375 L8.5625,14 L5.125,14 C3.59960938,14 2.375,12.7753906 2.375,11.25 C2.375,10.1086427 3.06787144,9.13378906 4.05078125,8.71484375 L4.5234375,8.52148438 L4.45898438,8.00585938 C4.44555681,7.89306675 4.4375,7.82861363 4.4375,7.8125 C4.4375,7.04443394 5.04443394,6.4375 5.8125,6.4375 C5.90917969,6.4375 6.01660156,6.45092756 6.13476563,6.48046875 L6.56445312,6.58789062 L6.82226562,6.24414062 C7.703125,5.11352556 9.078125,4.375 10.625,4.375 C12.878174,4.375 14.7580568,5.92456038 15.2871094,8.00585938 L15.4160156,8.54296875 L15.9960937,8.52148438 C16.1411136,8.51342756 16.1733402,8.5 16.125,8.5 C17.6503906,8.5 18.875,9.72460938 18.875,11.25 C18.875,12.7753906 17.6503906,14 16.125,14 L12.6875,14 L12.6875,15.375 L16.125,15.375 C18.3942869,15.375 20.25,13.5192869 20.25,11.25 C20.25,9.08007812 18.5393068,7.34252913 16.4042969,7.18945312 C15.5637209,4.76977556 13.3239744,3 10.625,3 Z M9.9375,11.25 L9.9375,16.75 L7.875,16.75 L10.625,19.5 L13.375,16.75 L11.3125,16.75 L11.3125,11.25 L9.9375,11.25 Z" id="Shape" fill="#000000" fill-rule="nonzero"></path>
                <polygon id="Path" points="0 0 22 0 22 22 0 22"></polygon>
            </g>
        </g>
    </g>
</svg>