<?xml version="1.0" encoding="UTF-8"?>
<svg width="16px" height="16px" viewBox="0 0 16 16" version="1.1" xmlns="http://www.w3.org/2000/svg" xmlns:xlink="http://www.w3.org/1999/xlink">
    <!-- Generator: sketchtool 60.1 (101010) - https://sketch.com -->
    <title>3F7587AB-AB20-45A9-BBC2-BA8752421D38</title>
    <desc>Created with sketchtool.</desc>
    <g id="UI-Elements" stroke="none" stroke-width="1" fill="none" fill-rule="evenodd">
        <g id="[UI]-Icons" transform="translate(-900.000000, -319.000000)" fill="#252631" fill-rule="nonzero">
            <g id="conversion" transform="translate(899.000000, 319.000000)">
                <path d="M16,7 L2,7 C1.4,7 1,6.6 1,6 C1,5.4 1.4,5 2,5 L13.6,5 L10.3,1.7 C9.9,1.3 9.9,0.7 10.3,0.3 C10.7,-0.1 11.3,-0.1 11.7,0.3 L16.7,5.3 C17,5.6 17.1,6 16.9,6.4 C16.7,6.8 16.4,7 16,7 Z" id="Path"></path>
                <path d="M7,16 C6.7,16 6.5,15.9 6.3,15.7 L1.3,10.7 C1,10.4 0.9,10 1.1,9.6 C1.3,9.2 1.6,9 2,9 L16,9 C16.6,9 17,9.4 17,10 C17,10.6 16.6,11 16,11 L4.4,11 L7.7,14.3 C8.1,14.7 8.1,15.3 7.7,15.7 C7.5,15.9 7.3,16 7,16 Z" id="Path"></path>
            </g>
        </g>
    </g>
</svg>