<?xml version="1.0" encoding="UTF-8" standalone="no"?>
<svg width="160px" height="200px" viewBox="0 0 160 200" version="1.1" xmlns="http://www.w3.org/2000/svg" xmlns:xlink="http://www.w3.org/1999/xlink">
    <!-- Generator: Sketch 41.2 (35397) - http://www.bohemiancoding.com/sketch -->
    <title>Group 6</title>
    <desc>Created with Sketch.</desc>
    <defs></defs>
    <g id="Page-1" stroke="none" stroke-width="1" fill="none" fill-rule="evenodd">
        <g id="Group-6" transform="translate(-40.000000, -20.000000)">
            <path d="M60,20 C49,20 40.1,29 40.1,40 L40,200 C40,211 48.9,220 59.9,220 L180,220 C191,220 200,211 200,200 L200,80 L140,20 L60,20 Z M130,90 L130,35 L185,90 L130,90 Z" id="Shape" fill="#757575"></path>
            <polygon id="Shape" points="0 0 240 0 240 240 0 240"></polygon>
            <path d="M105,111 L105,96 L85,116 L105,136 L105,121 C121.55,121 135,134.45 135,151 C135,156.05 133.75,160.85 131.5,165 L138.8,172.3 C142.7,166.15 145,158.85 145,151 C145,128.9 127.1,111 105,111 Z M105,181 C88.45,181 75,167.55 75,151 C75,145.95 76.25,141.15 78.5,137 L71.2,129.7 C67.3,135.85 65,143.15 65,151 C65,173.1 82.9,191 105,191 L105,206 L125,186 L105,166 L105,181 Z" id="Shape" fill="#FFFFFF"></path>
        </g>
    </g>
</svg>