<?xml version="1.0" encoding="UTF-8"?>
<svg width="17px" height="3px" viewBox="0 0 17 3" version="1.1" xmlns="http://www.w3.org/2000/svg" xmlns:xlink="http://www.w3.org/1999/xlink">
    <!-- Generator: sketchtool 60.1 (101010) - https://sketch.com -->
    <title>C11914EA-F49B-48AF-AF7C-940D0EB03474</title>
    <desc>Created with sketchtool.</desc>
    <g id="UI-Elements" stroke="none" stroke-width="1" fill="none" fill-rule="evenodd">
        <g id="[UI]-Icons" transform="translate(-280.000000, -638.000000)">
            <g id="ellipsis-h-solid" transform="translate(277.000000, 628.000000)">
                <path d="M4.375,10 C3.61499006,10 3,10.6149901 3,11.375 C3,12.1350099 3.61499006,12.75 4.375,12.75 C5.13500994,12.75 5.75,12.1350099 5.75,11.375 C5.75,10.6149901 5.13500994,10 4.375,10 Z M11.25,10 C10.4899901,10 9.875,10.6149901 9.875,11.375 C9.875,12.1350099 10.4899901,12.75 11.25,12.75 C12.0100099,12.75 12.625,12.1350099 12.625,11.375 C12.625,10.6149901 12.0100099,10 11.25,10 Z M18.125,10 C17.3649901,10 16.75,10.6149901 16.75,11.375 C16.75,12.1350099 17.3649901,12.75 18.125,12.75 C18.8850099,12.75 19.5,12.1350099 19.5,11.375 C19.5,10.6149901 18.8850099,10 18.125,10 Z" id="Shape" fill="#000000" fill-rule="nonzero"></path>
                <polygon id="Path" points="0 0 22 0 22 22 0 22"></polygon>
            </g>
        </g>
    </g>
</svg>