<?xml version="1.0" encoding="UTF-8"?>
<svg width="17px" height="17px" viewBox="0 0 17 17" version="1.1" xmlns="http://www.w3.org/2000/svg" xmlns:xlink="http://www.w3.org/1999/xlink">
    <!-- Generator: sketchtool 60.1 (101010) - https://sketch.com -->
    <title>4C3247E9-5083-4C15-853B-432872DFD970</title>
    <desc>Created with sketchtool.</desc>
    <g id="UI-Elements" stroke="none" stroke-width="1" fill="none" fill-rule="evenodd">
        <g id="[UI]-Icons" transform="translate(-342.000000, -569.000000)">
            <g id="exclamation-circle-solid" transform="translate(339.000000, 566.000000)">
                <path d="M11.25,3 C6.70068394,3 3,6.70068394 3,11.25 C3,15.7993167 6.70068394,19.5 11.25,19.5 C15.7993167,19.5 19.5,15.7993167 19.5,11.25 C19.5,6.70068394 15.7993167,3 11.25,3 Z M11.25,4.375 C15.0554198,4.375 18.125,7.44458025 18.125,11.25 C18.125,15.0554198 15.0554198,18.125 11.25,18.125 C7.44458025,18.125 4.375,15.0554198 4.375,11.25 C4.375,7.44458025 7.44458025,4.375 11.25,4.375 Z M10.5625,7.125 L10.5625,12.625 L11.9375,12.625 L11.9375,7.125 L10.5625,7.125 Z M10.5625,14 L10.5625,15.375 L11.9375,15.375 L11.9375,14 L10.5625,14 Z" id="Shape" fill="#000000" fill-rule="nonzero"></path>
                <polygon id="Path" points="0 0 22 0 22 22 0 22"></polygon>
            </g>
        </g>
    </g>
</svg>