<svg xmlns="http://www.w3.org/2000/svg" width="32" height="28" viewBox="0 0 32 28">
  <path d="M3.71875,0.28125 L2.28125,1.71875 L8.5,7.90625 L19.59375,19 L21.5,20.9375 L28.28125,27.71875 L29.71875,26.28125 L23.5,20.0625 C27.734375,17.964844 30.574219,14.851563 30.75,14.65625 L31.34375,14 L30.75,13.34375 C30.480469,13.042969 24.085938,6 16,6 C14.042969,6 12.195313,6.429688 10.5,7.0625 L3.71875,0.28125 Z M16,8 C18.152344,8 20.1875,8.605469 22,9.4375 C22.644531,10.515625 23,11.734375 23,13 C23,14.816406 22.296875,16.476563 21.15625,17.71875 L18.3125,14.875 C18.730469,14.363281 19,13.714844 19,13 C19,11.34375 17.65625,10 16,10 C15.285156,10 14.636719,10.269531 14.125,10.6875 L12.09375,8.65625 C13.335938,8.273438 14.636719,8 16,8 Z M6.6875,8.90625 C3.480469,10.878906 1.398438,13.175781 1.25,13.34375 L0.65625,14 L1.25,14.65625 C1.507813,14.945313 7.429688,21.425781 15.0625,21.9375 C15.371094,21.96875 15.683594,22 16,22 C16.316406,22 16.628906,21.96875 16.9375,21.9375 C17.761719,21.882813 18.566406,21.773438 19.34375,21.59375 L17.5625,19.8125 C17.054688,19.929688 16.539063,20 16,20 C12.140625,20 9,16.859375 9,13 C9,12.46875 9.070313,11.949219 9.1875,11.4375 L6.6875,8.90625 Z M7.25,10.9375 C7.089844,11.613281 7,12.300781 7,13 C7,14.738281 7.488281,16.339844 8.34375,17.71875 C6.054688,16.40625 4.304688,14.867188 3.40625,14 C4.152344,13.277344 5.496094,12.078125 7.25,10.9375 Z M24.75,10.9375 C26.503906,12.078125 27.84375,13.277344 28.59375,14 C27.695313,14.867188 25.917969,16.4375 23.625,17.75 C24.484375,16.371094 25,14.738281 25,13 C25,12.300781 24.910156,11.609375 24.75,10.9375 Z"/>
</svg>
