<?xml version="1.0" encoding="UTF-8"?>
<svg width="21px" height="19px" viewBox="0 0 21 19" version="1.1" xmlns="http://www.w3.org/2000/svg" xmlns:xlink="http://www.w3.org/1999/xlink">
    <!-- Generator: sketchtool 60.1 (101010) - https://sketch.com -->
    <title>CE0B9D10-4BCE-44B9-AB66-2747033F97BF</title>
    <desc>Created with sketchtool.</desc>
    <g id="UI-Elements" stroke="none" stroke-width="1" fill="none" fill-rule="evenodd">
        <g id="[UI]-Icons" transform="translate(-464.000000, -382.000000)">
            <g id="eye-slash" transform="translate(463.000000, 380.000000)">
                <path d="M2.97449039,2 L2.02728062,2.99026477 L6.12499247,7.25270876 L13.434981,14.8949695 L14.6910635,16.2296741 L19.1594227,20.9011405 L20.1066324,19.9108758 L16.0089206,15.6269043 C18.7990711,14.1818714 20.6703254,12.0371948 20.7861525,11.9026477 L21.1773913,11.4505703 L20.7861525,10.9984929 C20.6085508,10.7912909 16.3950118,5.93953157 11.0669565,5.93953157 C9.77741294,5.93953157 8.55993967,6.23553497 7.44284955,6.6714664 L2.97449039,2 Z M11.0669565,7.31729124 C12.4851974,7.31729124 13.8262198,7.73438663 15.0205278,8.30755601 C15.4452276,9.05025458 15.6794563,9.88982688 15.6794563,10.7616904 C15.6794563,12.0129759 15.2161472,13.1566246 14.4645568,14.0123422 L12.5907288,12.0533401 C12.8661405,11.7008272 13.0437421,11.254132 13.0437421,10.7616904 C13.0437421,9.6207332 12.1583069,8.69505092 11.0669565,8.69505092 C10.5959254,8.69505092 10.1686518,8.88072539 9.83146551,9.1686558 L8.49301691,7.76936864 C9.31153004,7.50565717 10.1686518,7.31729124 11.0669565,7.31729124 Z M4.93068449,7.94158859 C2.81748024,9.30051154 1.44557059,10.8827824 1.34776056,10.9984929 L0.956521739,11.4505703 L1.34776056,11.9026477 C1.5176409,12.1017773 5.41973335,16.5660411 10.449211,16.918554 C10.6525524,16.9400815 10.8584676,16.961609 11.0669565,16.961609 C11.2754455,16.961609 11.4813606,16.9400815 11.684702,16.918554 C12.2278034,16.8808812 12.7580347,16.805535 13.2702488,16.6817515 L12.0965324,15.4546843 C11.7619205,15.5354128 11.4221605,15.5838493 11.0669565,15.5838493 C8.52390419,15.5838493 6.45445674,13.420336 6.45445674,10.7616904 C6.45445674,10.395723 6.50078799,10.0378286 6.57800584,9.68531568 L4.93068449,7.94158859 Z M5.3013318,9.34087576 C5.19580044,9.80640767 5.13659966,10.2800126 5.13659966,10.7616904 C5.13659966,11.9591572 5.45834195,13.0624416 6.02203489,14.0123422 C4.51370661,13.1081874 3.36058166,12.0479586 2.76857522,11.4505703 C3.26019785,10.9527471 4.14563308,10.1266293 5.3013318,9.34087576 Z M16.8325812,9.34087576 C17.98828,10.1266293 18.8711414,10.9527471 19.3653378,11.4505703 C18.773332,12.0479586 17.6021894,13.1297149 16.0912866,14.0338697 C16.6575534,13.0839691 16.9973134,11.9591572 16.9973134,10.7616904 C16.9973134,10.2800126 16.9381126,9.8037169 16.8325812,9.34087576 Z" id="Shape" fill="#000000" fill-rule="nonzero"></path>
                <polygon id="Path" points="0 0 21.0434783 0 21.0434783 22 0 22"></polygon>
            </g>
        </g>
    </g>
</svg>