<?xml version="1.0" encoding="UTF-8"?>
<svg width="21px" height="11px" viewBox="0 0 21 11" version="1.1" xmlns="http://www.w3.org/2000/svg" xmlns:xlink="http://www.w3.org/1999/xlink">
    <!-- Generator: sketchtool 60.1 (101010) - https://sketch.com -->
    <title>8BAA42E8-8DAB-4565-B1FA-0AC0BFF001CE</title>
    <desc>Created with sketchtool.</desc>
    <g id="UI-Elements" stroke="none" stroke-width="1" fill="none" fill-rule="evenodd">
        <g id="[UI]-Icons" transform="translate(-402.000000, -385.000000)">
            <g id="eye" transform="translate(401.000000, 380.000000)">
                <path d="M11.0478261,5 C5.56543245,5 1.34702028,10.049389 1.34702028,10.049389 L0.956521739,10.500611 L1.34702028,10.951833 C1.34702028,10.951833 5.19291691,15.5365709 10.3079341,15.9582485 C10.5519959,15.9904786 10.7960576,16.001222 11.0478261,16.001222 C11.2995952,16.001222 11.5436563,15.9904786 11.7877181,15.9582485 C16.9027353,15.5365709 20.7486319,10.951833 20.7486319,10.951833 L21.1391304,10.500611 L20.7486319,10.049389 C20.7486319,10.049389 16.5302204,5 11.0478261,5 Z M11.0478261,6.37515275 C12.4967812,6.37515275 13.8326972,6.78877326 14.9939166,7.34205703 C15.4126751,8.06723558 15.6515983,8.90253292 15.6515983,9.81303462 C15.6515983,12.2974413 13.8686645,14.3386836 11.56164,14.6045825 C11.5487948,14.6072682 11.53338,14.6018968 11.5205348,14.6045825 C11.3638218,14.6126402 11.2071087,14.6260692 11.0478261,14.6260692 C10.8731294,14.6260692 10.7035711,14.6153259 10.5340122,14.6045825 C8.22698829,14.3386836 6.44405384,12.2974413 6.44405384,9.81303462 C6.44405384,8.91596267 6.67527041,8.08066463 7.08118303,7.36354379 L7.06063048,7.36354379 C8.2321261,6.79951664 9.58345689,6.37515275 11.0478261,6.37515275 Z M11.0478261,7.7503055 C9.95854069,7.7503055 9.07478084,8.67423625 9.07478084,9.81303462 C9.07478084,10.951833 9.95854069,11.8757637 11.0478261,11.8757637 C12.1371115,11.8757637 13.0208713,10.951833 13.0208713,9.81303462 C13.0208713,8.67423625 12.1371115,7.7503055 11.0478261,7.7503055 Z M5.29311078,8.39490835 C5.190348,8.85687373 5.12869034,9.32152478 5.12869034,9.81303462 C5.12869034,11.018979 5.45753121,12.1470339 6.03300275,13.1005092 C4.37595319,12.0986891 3.22501013,10.9034881 2.84735677,10.500611 C3.16335246,10.1621948 4.04454341,9.2651222 5.29311078,8.39490835 Z M16.8025414,8.39490835 C18.0511094,9.2651222 18.9322997,10.1621948 19.2482954,10.500611 C18.870642,10.9034881 17.719699,12.0986891 16.0626494,13.1005092 C16.638121,12.1470339 16.9669618,11.018979 16.9669618,9.81303462 C16.9669618,9.32152478 16.9053042,8.85150238 16.8025414,8.39490835 Z" id="Shape" fill="#000000" fill-rule="nonzero"></path>
                <polygon id="Path" points="0 0 21.0434783 0 21.0434783 22 0 22"></polygon>
            </g>
        </g>
    </g>
</svg>