<svg xmlns="http://www.w3.org/2000/svg" width="32" height="16" viewBox="0 0 32 16">
  <path d="M16,0 C7.664063,0 1.25,7.34375 1.25,7.34375 L0.65625,8 L1.25,8.65625 C1.25,8.65625 7.097656,15.324219 14.875,15.9375 C15.246094,15.984375 15.617188,16 16,16 C16.382813,16 16.753906,15.984375 17.125,15.9375 C24.902344,15.324219 30.75,8.65625 30.75,8.65625 L31.34375,8 L30.75,7.34375 C30.75,7.34375 24.335938,0 16,0 Z M16,2 C18.203125,2 20.234375,2.601563 22,3.40625 C22.636719,4.460938 23,5.675781 23,7 C23,10.613281 20.289063,13.582031 16.78125,13.96875 C16.761719,13.972656 16.738281,13.964844 16.71875,13.96875 C16.480469,13.980469 16.242188,14 16,14 C15.734375,14 15.476563,13.984375 15.21875,13.96875 C11.710938,13.582031 9,10.613281 9,7 C9,5.695313 9.351563,4.480469 9.96875,3.4375 L9.9375,3.4375 C11.71875,2.617188 13.773438,2 16,2 Z M16,4 C14.34375,4 13,5.34375 13,7 C13,8.65625 14.34375,10 16,10 C17.65625,10 19,8.65625 19,7 C19,5.34375 17.65625,4 16,4 Z M7.25,4.9375 C7.09375,5.609375 7,6.285156 7,7 C7,8.753906 7.5,10.394531 8.375,11.78125 C5.855469,10.324219 4.105469,8.585938 3.53125,8 C4.011719,7.507813 5.351563,6.203125 7.25,4.9375 Z M24.75,4.9375 C26.648438,6.203125 27.988281,7.507813 28.46875,8 C27.894531,8.585938 26.144531,10.324219 23.625,11.78125 C24.5,10.394531 25,8.753906 25,7 C25,6.285156 24.90625,5.601563 24.75,4.9375 Z"/>
</svg>
