<?xml version="1.0" encoding="UTF-8"?>
<svg width="16px" height="17px" viewBox="0 0 16 17" version="1.1" xmlns="http://www.w3.org/2000/svg" xmlns:xlink="http://www.w3.org/1999/xlink">
    <!-- Generator: sketchtool 60.1 (101010) - https://sketch.com -->
    <title>82A3D506-3951-4FE5-B648-6BA4FC4E5821</title>
    <desc>Created with sketchtool.</desc>
    <g id="UI-Elements" stroke="none" stroke-width="1" fill="none" fill-rule="evenodd">
        <g id="[UI]-Icons" transform="translate(-466.000000, -693.000000)">
            <g id="file-import-solid" transform="translate(463.000000, 690.000000)">
                <path d="M3,3 L3,19.5054545 L16.7545455,19.5054545 L16.7545455,13.3159091 L15.3790909,13.3159091 L15.3790909,18.13 L4.37545455,18.13 L4.37545455,4.37545455 L15.3790909,4.37545455 L15.3790909,9.18954545 L16.7545455,9.18954545 L16.7545455,3 L3,3 Z M10.9088636,7.81409091 L7.94269591,10.7582514 L7.47022727,11.2527273 L7.94338364,11.7472032 L10.9088636,14.6913636 L11.8758082,13.7244191 L10.0925314,11.9404545 L18.13,11.9404545 L18.13,10.565 L10.0918436,10.565 L11.8758082,8.78103545 L10.9088636,7.81409091 Z" id="Shape" fill="#000000" fill-rule="nonzero"></path>
                <polygon id="Path" points="0 0 22 0 22 22 0 22"></polygon>
            </g>
        </g>
    </g>
</svg>