<?xml version="1.0" encoding="UTF-8"?>
<svg width="14px" height="18px" viewBox="0 0 14 18" version="1.1" xmlns="http://www.w3.org/2000/svg" xmlns:xlink="http://www.w3.org/1999/xlink">
    <!-- Generator: sketchtool 60.1 (101010) - https://sketch.com -->
    <title>2F9765AD-1117-4B40-9CAE-2B39DBB43AB5</title>
    <desc>Created with sketchtool.</desc>
    <g id="UI-Elements" stroke="none" stroke-width="1" fill="none" fill-rule="evenodd">
        <g id="[UI]-Icons" transform="translate(-591.000000, -382.000000)">
            <g id="file-invoice-solid" transform="translate(587.000000, 380.000000)">
                <path d="M4,2 L4,19.875 L17.75,19.875 L17.75,6.53723146 L17.5432131,6.33178707 L13.4182131,2.20678707 L13.2127688,2 L4,2 Z M5.375,3.375 L12.25,3.375 L12.25,7.5 L16.375,7.5 L16.375,18.5 L5.375,18.5 L5.375,3.375 Z M13.625,4.33776854 L15.4122312,6.125 L13.625,6.125 L13.625,4.33776854 Z M6.75,8.875 L6.75,10.25 L15,10.25 L15,8.875 L6.75,8.875 Z M6.75,12.3125 L6.75,13.6875 L11.5625,13.6875 L11.5625,12.3125 L6.75,12.3125 Z M12.9375,12.3125 L12.9375,13.6875 L15,13.6875 L15,12.3125 L12.9375,12.3125 Z M6.75,15.0625 L6.75,16.4375 L11.5625,16.4375 L11.5625,15.0625 L6.75,15.0625 Z M12.9375,15.0625 L12.9375,16.4375 L15,16.4375 L15,15.0625 L12.9375,15.0625 Z" id="Shape" fill="#000000" fill-rule="nonzero"></path>
                <polygon id="Path" points="0 0 22 0 22 22 0 22"></polygon>
            </g>
        </g>
    </g>
</svg>