<svg xmlns="http://www.w3.org/2000/svg" width="20" height="26" viewBox="0 0 20 26">
  <path d="M0,0 L0,26 L20,26 L20,0 L0,0 Z M2,2 L18,2 L18,24 L2,24 L2,2 Z M9.40625,7.34364891 C9.101563,7.339844 8.746094,7.449219 8.5,7.65625 C8.246094,7.871094 8.132813,8.136719 8.0625,8.40625 C7.925781,8.945313 7.964844,9.503906 8.09375,10.125 C8.246094,10.851563 8.679688,11.726563 9.03125,12.5625 C8.851563,13.324219 8.804688,14 8.53125,14.78125 C8.296875,15.453125 7.996094,15.839844 7.71875,16.4375 C7.089844,16.675781 6.339844,16.816406 5.84375,17.125 C5.308594,17.457031 4.839844,17.824219 4.5625,18.34375 C4.285156,18.863281 4.316406,19.597656 4.6875,20.125 C4.871094,20.402344 5.113281,20.621094 5.4375,20.75 C5.761719,20.878906 6.113281,20.882813 6.40625,20.78125 C6.996094,20.578125 7.414063,20.125 7.8125,19.59375 C8.183594,19.101563 8.445313,18.265625 8.78125,17.59375 C9.285156,17.425781 9.648438,17.214844 10.1875,17.09375 C10.75,16.96875 11.128906,17.027344 11.65625,16.96875 C11.882813,17.226563 12.074219,17.640625 12.3125,17.84375 C12.789063,18.257813 13.3125,18.585938 13.9375,18.625 C14.5625,18.664063 15.1875,18.273438 15.53125,17.6875 L15.5625,17.6875 L15.5625,17.65625 C15.714844,17.390625 15.820313,17.101563 15.8125,16.78125 C15.804688,16.460938 15.644531,16.125 15.4375,15.90625 C15.027344,15.46875 14.503906,15.355469 13.9375,15.28125 C13.5,15.222656 12.890625,15.378906 12.375,15.40625 C11.921875,14.808594 11.472656,14.359375 11.0625,13.59375 C10.839844,13.179688 10.78125,12.828125 10.59375,12.40625 C10.738281,11.726563 11.023438,10.96875 11.0625,10.375 C11.109375,9.65625 11.082031,9.035156 10.875,8.46875 C10.769531,8.183594 10.601563,7.902344 10.34375,7.6875 C10.09375,7.480469 9.769531,7.351563 9.4375,7.34364891 C9.425781,7.34364891 9.417969,7.34364891 9.40625,7.34364891 Z M10.0625,14.75 C10.242188,15.066406 10.464844,15.265625 10.65625,15.5625 C10.375,15.613281 10.160156,15.5625 9.875,15.625 C9.828125,15.636719 9.796875,15.675781 9.75,15.6875 C9.808594,15.53125 9.882813,15.4375 9.9375,15.28125 C10,15.097656 10.003906,14.933594 10.0625,14.75 Z M13.75,16.78125 C14.085938,16.824219 14.207031,16.886719 14.25,16.90625 C14.242188,16.921875 14.261719,16.917969 14.25,16.9375 C14.125,17.144531 14.113281,17.128906 14.03125,17.125 C13.964844,17.121094 13.710938,16.984375 13.46875,16.8125 C13.539063,16.816406 13.6875,16.773438 13.75,16.78125 Z M6.75,18.34375 C6.695313,18.425781 6.648438,18.617188 6.59375,18.6875 C6.289063,19.09375 6.007813,19.28125 5.9375,19.3125 C5.925781,19.296875 5.957031,19.3125 5.9375,19.28125 L5.90625,19.28125 C5.804688,19.136719 5.832031,19.195313 5.90625,19.0625 C5.980469,18.929688 6.214844,18.660156 6.625,18.40625 C6.65625,18.386719 6.71875,18.363281 6.75,18.34375 Z"/>
</svg>
