<?xml version="1.0" encoding="UTF-8"?>
<svg width="14px" height="18px" viewBox="0 0 14 18" version="1.1" xmlns="http://www.w3.org/2000/svg" xmlns:xlink="http://www.w3.org/1999/xlink">
    <!-- Generator: sketchtool 60.1 (101010) - https://sketch.com -->
    <title>15C59E4A-BB4A-4335-BB78-682D46671BE7</title>
    <desc>Created with sketchtool.</desc>
    <g id="UI-Elements" stroke="none" stroke-width="1" fill="none" fill-rule="evenodd">
        <g id="[UI]-Icons" transform="translate(-529.000000, -568.000000)">
            <g id="file-pdf" transform="translate(525.000000, 566.000000)">
                <path d="M4,2 L4,19.875 L17.75,19.875 L17.75,2 L4,2 Z M5.375,3.375 L16.375,3.375 L16.375,18.5 L5.375,18.5 L5.375,3.375 Z M10.4667969,7.04875862 C10.2573246,7.04614275 10.0129396,7.12133806 9.84375,7.26367188 C9.66918963,7.41137713 9.59130894,7.59399431 9.54296875,7.77929688 C9.44897444,8.14990269 9.47583025,8.53393538 9.56445312,8.9609375 C9.66918963,9.46044956 9.9672855,10.0620121 10.2089844,10.6367188 C10.0854496,11.1604006 10.053223,11.625 9.86523438,12.1621094 C9.70410156,12.6240234 9.49731463,12.8898927 9.30664063,13.3007812 C8.87426775,13.4645994 8.35864275,13.5612791 8.01757812,13.7734375 C7.64965838,14.0017088 7.32739275,14.2541506 7.13671875,14.6113281 C6.94604475,14.9685057 6.96752913,15.4733885 7.22265625,15.8359375 C7.34887712,16.0266115 7.51538069,16.1770021 7.73828125,16.265625 C7.96118181,16.3542479 8.20288069,16.3569339 8.40429688,16.2871094 C8.80981463,16.1474609 9.09716831,15.8359375 9.37109375,15.4707031 C9.62622088,15.1323246 9.80615269,14.5576172 10.0371094,14.0957031 C10.3835448,13.9802244 10.6333011,13.8352052 11.0039063,13.7519531 C11.390625,13.6660156 11.6511229,13.706299 12.0136719,13.6660156 C12.1694339,13.8432621 12.3010256,14.1279297 12.4648438,14.2675781 C12.7924808,14.5522464 13.1523438,14.7778324 13.5820313,14.8046875 C14.0117188,14.8315433 14.4414063,14.5629886 14.6777344,14.1601562 L14.6992188,14.1601562 L14.6992188,14.1386719 C14.8039553,13.9560547 14.8764652,13.7573246 14.8710938,13.5371094 C14.865723,13.3168949 14.7556151,13.0859375 14.6132813,12.9355469 C14.331299,12.6347656 13.9714354,12.5568849 13.5820313,12.5058594 C13.28125,12.465576 12.8623047,12.5729979 12.5078125,12.5917969 C12.1962891,12.1809084 11.887451,11.8720703 11.6054688,11.3457031 C11.4523928,11.0610355 11.4121094,10.8193359 11.2832031,10.5292969 C11.3825682,10.0620121 11.5786136,9.54101562 11.6054688,9.1328125 C11.6376953,8.63867188 11.6188963,8.21166975 11.4765625,7.82226563 C11.4040526,7.62622088 11.2885746,7.4328615 11.1113281,7.28515625 C10.9394531,7.14282244 10.7165526,7.05419956 10.4882813,7.04875862 C10.4802244,7.04875862 10.4748537,7.04875862 10.4667969,7.04875862 Z M10.9179688,12.140625 C11.0415042,12.3581541 11.1945802,12.4951172 11.3261719,12.6992188 C11.1328125,12.7341307 10.9851073,12.6992188 10.7890625,12.7421875 C10.7568359,12.7502443 10.7353516,12.7770994 10.703125,12.7851562 C10.7434084,12.6777344 10.7944339,12.6132812 10.8320312,12.5058594 C10.875,12.3796385 10.8776854,12.2668459 10.9179688,12.140625 Z M13.453125,13.5371094 C13.6840824,13.5666506 13.7673338,13.6096193 13.796875,13.6230469 C13.7915043,13.6337891 13.8049318,13.6311037 13.796875,13.6445312 C13.7109375,13.7868651 13.7028807,13.7761229 13.6464844,13.7734375 C13.6008303,13.7707521 13.4262699,13.6767578 13.2597656,13.5585938 C13.3081058,13.5612791 13.4101563,13.5317386 13.453125,13.5371094 Z M8.640625,14.6113281 C8.60302769,14.6677244 8.57080113,14.7993167 8.53320312,14.8476562 C8.32373081,15.1269531 8.13037144,15.2558594 8.08203125,15.2773438 C8.07397444,15.2666016 8.09545881,15.2773438 8.08203125,15.2558594 L8.06054688,15.2558594 C7.990723,15.1564943 8.00952131,15.1967777 8.06054688,15.1054688 C8.11157244,15.0141605 8.27270525,14.8288573 8.5546875,14.6542969 C8.57617188,14.6408693 8.61914062,14.6247557 8.640625,14.6113281 Z" id="Shape" fill="#000000" fill-rule="nonzero"></path>
                <polygon id="Path" points="0 0 22 0 22 22 0 22"></polygon>
            </g>
        </g>
    </g>
</svg>