<?xml version="1.0" encoding="UTF-8"?>
<svg width="14px" height="18px" viewBox="0 0 14 18" version="1.1" xmlns="http://www.w3.org/2000/svg" xmlns:xlink="http://www.w3.org/1999/xlink">
    <!-- Generator: sketchtool 60.1 (101010) - https://sketch.com -->
    <title>B2843449-DA4D-4115-9C4E-8B4B276D413A</title>
    <desc>Created with sketchtool.</desc>
    <g id="UI-Elements" stroke="none" stroke-width="1" fill="none" fill-rule="evenodd">
        <g id="[UI]-Icons" transform="translate(-591.000000, -568.000000)">
            <g id="file-csv-solid" transform="translate(587.000000, 566.000000)">
                <path d="M4,2 L4,6.8125 L5.375,6.8125 L5.375,3.375 L16.375,3.375 L16.375,6.8125 L17.75,6.8125 L17.75,2 L4,2 Z M6.40625,8.18749876 C5.95024132,8.1869518 5.51275195,8.36785783 5.19030489,8.69030489 C4.86785783,9.01275195 4.6869518,9.45024132 4.68749876,9.90625 L4.68749876,11.96875 C4.68749876,12.9195625 5.4554375,13.6874988 6.40625,13.6874988 C7.3570625,13.6874988 8.125,12.9195625 8.125,11.96875 L8.125,11.625 L6.75,11.625 L6.75,11.96875 C6.75,12.1165625 6.5540625,12.3125 6.40625,12.3125 C6.2584375,12.3125 6.0625,12.1165625 6.0625,11.96875 L6.0625,9.90625 C6.0625,9.7584375 6.2584375,9.5625 6.40625,9.5625 C6.5540625,9.5625 6.75,9.7584375 6.75,9.90625 L6.75,10.25 L8.125,10.25 L8.125,9.90625 C8.125,8.9554375 7.3570625,8.18749876 6.40625,8.18749876 Z M10.53125,8.18749876 C10.0752413,8.1869518 9.63775195,8.36785783 9.31530489,8.69030489 C8.99285783,9.01275195 8.8119518,9.45024132 8.81249876,9.90625 C8.81249876,10.8570625 9.5804375,11.625 10.53125,11.625 C10.6790625,11.625 10.875,11.8209375 10.875,11.96875 C10.875,12.175 10.7945625,12.3125 10.53125,12.3125 C10.2789375,12.3125 10.238375,12.258875 10.230125,12.247875 C10.2225625,12.2375625 10.1875,12.19425 10.1875,12.033375 L8.81249876,12.033375 C8.81249876,12.4225 8.92525,12.8604375 9.2421875,13.1931875 C9.5584375,13.526625 10.029375,13.6874988 10.53125,13.6874988 C11.506125,13.6874988 12.25,12.8625 12.25,11.96875 C12.25,11.0179375 11.4820625,10.25 10.53125,10.25 C10.3834375,10.25 10.1875,10.0540625 10.1875,9.90625 C10.1875,9.7584375 10.3834375,9.5625 10.53125,9.5625 C10.714125,9.5625 10.7705,9.6058125 10.810375,9.6484375 C10.8546709,9.70284386 10.8776433,9.77151655 10.875,9.841625 L12.25,9.841625 C12.25,9.436 12.1021875,9.0228125 11.799,8.703125 C11.495125,8.3834375 11.035875,8.18749876 10.53125,8.18749876 L10.53125,8.18749876 Z M12.9375,8.1875 L12.9375,8.98225 L12.9808125,9.0895 L14.3558125,13.2145 L15,15.1704375 L15.644875,13.215875 L17.019875,9.090875 L17.0625,8.9829375 L17.0625,8.1875 L15.6875,8.1875 L15.6875,8.7890625 L15,10.8515625 L14.3125,8.7890625 L14.3125,8.1875 L12.9375,8.1875 Z M4,15.0625 L4,19.875 L17.75,19.875 L17.75,15.0625 L16.375,15.0625 L16.375,18.5 L5.375,18.5 L5.375,15.0625 L4,15.0625 Z" id="Shape" fill="#000000" fill-rule="nonzero"></path>
                <polygon id="Path" points="0 0 22 0 22 22 0 22"></polygon>
            </g>
        </g>
    </g>
</svg>