<?xml version="1.0" encoding="UTF-8"?>
<svg width="17px" height="17px" viewBox="0 0 17 17" version="1.1" xmlns="http://www.w3.org/2000/svg" xmlns:xlink="http://www.w3.org/1999/xlink">
    <!-- Generator: sketchtool 60.1 (101010) - https://sketch.com -->
    <title>E25A8036-EBB1-41B0-BD75-9823B76326DA</title>
    <desc>Created with sketchtool.</desc>
    <g id="UI-Elements" stroke="none" stroke-width="1" fill="none" fill-rule="evenodd">
        <g id="[UI]-Icons" transform="translate(-156.000000, -631.000000)">
            <g id="info-circle-solid" transform="translate(153.000000, 628.000000)">
                <path d="M11.25,3 C6.7010966,3 3,6.7010966 3,11.25 C3,15.7989034 6.7010966,19.5 11.25,19.5 C15.7989034,19.5 19.5,15.7989034 19.5,11.25 C19.5,6.7010966 15.7989034,3 11.25,3 Z M11.25,4.26923077 C15.1122299,4.26923077 18.2307692,7.38777075 18.2307692,11.25 C18.2307692,15.1122299 15.1122299,18.2307692 11.25,18.2307692 C7.38777075,18.2307692 4.26923077,15.1122299 4.26923077,11.25 C4.26923077,7.38777075 7.38777075,4.26923077 11.25,4.26923077 Z M10.6153846,7.44230769 L10.6153846,8.71153846 L11.8846154,8.71153846 L11.8846154,7.44230769 L10.6153846,7.44230769 Z M10.6153846,9.98076923 L10.6153846,15.0576923 L11.8846154,15.0576923 L11.8846154,9.98076923 L10.6153846,9.98076923 Z" id="Shape" fill="#000000" fill-rule="nonzero"></path>
                <polygon id="Path" points="0 0 22 0 22 22 0 22"></polygon>
            </g>
        </g>
    </g>
</svg>