<?xml version="1.0" encoding="UTF-8" standalone="no"?>
<svg width="906px" height="377px" viewBox="0 0 906 377" version="1.1" xmlns="http://www.w3.org/2000/svg" xmlns:xlink="http://www.w3.org/1999/xlink">
    <!-- Generator: Sketch 41.2 (35397) - http://www.bohemiancoding.com/sketch -->
    <title>[6] send invoice</title>
    <desc>Created with Sketch.</desc>
    <defs>
        <linearGradient x1="38.8850007%" y1="8.49424881%" x2="99.4038235%" y2="80.414086%" id="linearGradient-1">
            <stop stop-color="#000000" offset="2.92%"></stop>
            <stop stop-color="#0E0C0D" stop-opacity="0.7382" offset="21.12%"></stop>
            <stop stop-color="#1D1A1B" stop-opacity="0.3254" offset="49.82%"></stop>
            <stop stop-color="#231F20" stop-opacity="0" offset="72.45%"></stop>
        </linearGradient>
    </defs>
    <g id="Page-1" stroke="none" stroke-width="1" fill="none" fill-rule="evenodd">
        <g id="[6]-send-invoice">
            <g id="Layer_1">
                <path d="M621.05,155.742 C620.626,153.707 620.398,151.597 620.398,149.437 C620.398,132.514 634.116,118.793 651.039,118.793 C658.113,118.793 664.623,121.196 669.808,125.223 C672.645,111.35 684.92,100.911 699.632,100.911 C716.442,100.911 730.07,114.539 730.07,131.349 C730.07,132.357 730.017,133.354 729.923,134.337 C731.379,134.038 732.887,133.883 734.431,133.883 C746.819,133.883 756.86,143.926 756.86,156.313 C756.86,158.288 756.579,160.194 756.1,162.02 C758.657,161.09 761.415,160.584 764.294,160.584 C777.566,160.584 788.326,171.344 788.326,184.615 C788.326,197.886 777.566,208.646 764.294,208.646 L764.294,208.646 L622.894,208.646 C608.266,208.646 596.406,196.787 596.406,182.158 C596.405,168.152 607.283,156.689 621.05,155.742 Z" id="Shape" fill="#EFEFEF"></path>
                <path d="M764.293,212.148 L622.894,212.148 C606.359,212.148 592.906,198.695 592.906,182.16 C592.906,167.743 603.247,155.484 617.059,152.748 C616.952,151.645 616.898,150.539 616.898,149.437 C616.898,130.61 632.213,115.293 651.039,115.293 C656.985,115.293 662.682,116.792 667.759,119.662 C672.59,106.515 685.284,97.411 699.632,97.411 C718.028,97.411 733.051,112.123 733.558,130.398 C733.848,130.388 734.14,130.383 734.431,130.383 C748.728,130.383 760.36,142.015 760.36,156.313 C760.36,156.663 760.352,157.014 760.337,157.367 C761.641,157.179 762.962,157.085 764.295,157.085 C779.477,157.085 791.827,169.436 791.827,184.616 C791.827,199.796 779.475,212.148 764.293,212.148 Z M651.038,122.293 C636.072,122.293 623.897,134.47 623.897,149.437 C623.897,151.303 624.091,153.184 624.476,155.028 C624.682,156.018 624.45,157.049 623.839,157.855 C623.228,158.661 622.298,159.164 621.289,159.233 C609.298,160.058 599.904,170.129 599.904,182.159 C599.904,194.835 610.217,205.147 622.892,205.147 L764.291,205.147 C775.612,205.147 784.823,195.937 784.823,184.616 C784.823,173.295 775.612,164.085 764.291,164.085 C761.883,164.085 759.527,164.497 757.293,165.31 C756.065,165.756 754.699,165.483 753.739,164.607 C752.777,163.731 752.381,162.392 752.711,161.133 C753.14,159.498 753.357,157.877 753.357,156.313 C753.357,145.875 744.866,137.383 734.428,137.383 C733.141,137.383 731.861,137.512 730.624,137.766 C729.534,137.987 728.406,137.683 727.58,136.94 C726.754,136.197 726.329,135.107 726.436,134.002 C726.523,133.097 726.567,132.205 726.567,131.349 C726.567,116.495 714.482,104.411 699.629,104.411 C686.884,104.411 675.783,113.458 673.233,125.924 C672.991,127.11 672.154,128.086 671.019,128.506 C669.886,128.926 668.614,128.731 667.658,127.987 C662.863,124.262 657.115,122.293 651.038,122.293 Z" id="Shape" fill="#2C5378"></path>
                <polygon id="Shape" fill="#4EB79D" points="616.313 320.489 293.83 320.489 335.312 166.854 532.646 36.854 657.796 166.854"></polygon>
                <polygon id="Shape" fill="#58595B" opacity="0.15" points="302.971 313.489 341.378 171.241 531.638 45.901 650.005 168.855 610.953 313.489"></polygon>
                <path d="M616.313,323.989 L293.83,323.989 C292.741,323.989 291.713,323.482 291.051,322.617 C290.389,321.752 290.167,320.629 290.451,319.577 L331.932,165.942 C332.155,165.117 332.672,164.401 333.386,163.931 L530.719,33.931 C532.126,33.006 533.995,33.211 535.166,34.427 L660.316,164.427 C661.169,165.312 661.494,166.58 661.173,167.767 L619.691,321.401 C619.28,322.929 617.896,323.989 616.313,323.989 Z M298.4,316.989 L613.632,316.989 L653.9,167.855 L532.142,41.378 L338.345,169.047 L298.4,316.989 Z" id="Shape" fill="#2C5378"></path>
                <path d="M623.677,3.836 L411.748,3.836 C409.88,3.836 407.957,5.351 407.453,7.218 L332.487,284.869 L596.892,284.869 L660.275,50.124 L623.677,3.836 Z" id="Shape" fill="#FFFFFF"></path>
                <path d="M596.892,287.869 L332.487,287.869 C331.553,287.869 330.673,287.434 330.105,286.693 C329.537,285.952 329.347,284.988 329.59,284.087 L404.556,6.436 C405.418,3.244 408.509,0.836 411.747,0.836 L623.676,0.836 C624.593,0.836 625.46,1.256 626.03,1.975 L662.628,48.263 C663.217,49.009 663.418,49.989 663.171,50.906 L599.788,285.651 C599.435,286.96 598.247,287.869 596.892,287.869 Z M336.404,281.869 L594.593,281.869 L656.984,50.8 L622.224,6.836 L411.748,6.836 C411.274,6.836 410.511,7.4 410.35,8 L336.404,281.869 Z" id="Shape" fill="#2C5378"></path>
                <polygon id="Shape" fill="url(#linearGradient-1)" opacity="0.2" points="649.691 97.144 645.464 97.144 607.639 53.995 611.246 40.634 661.935 51.802"></polygon>
                <path d="M660.274,50.124 C659.901,51.502 658.483,52.619 657.104,52.619 L610.504,52.619 C609.125,52.619 608.311,51.502 608.684,50.124 L620.507,6.331 C620.879,4.953 622.297,3.836 623.676,3.836 L660.274,50.124 Z" id="Shape" fill="#EFEFEF"></path>
                <path d="M657.104,55.619 L610.504,55.619 C608.921,55.619 607.49,54.935 606.577,53.743 C605.647,52.527 605.359,50.923 605.788,49.34 L617.61,5.549 C618.336,2.862 620.943,0.836 623.675,0.836 C624.592,0.836 625.459,1.256 626.029,1.975 L662.627,48.263 C663.217,49.009 663.418,49.99 663.169,50.908 C662.443,53.594 659.835,55.619 657.104,55.619 Z M611.929,49.619 L656.051,49.619 L623.159,8.018 L611.929,49.619 Z" id="Shape" fill="#2C5378"></path>
                <g id="Group" transform="translate(423.000000, 23.000000)" fill="#2C5378">
                    <path d="M7.003,2.89 C7.368,1.538 8.693,0.494 10.045,0.494 L25.808,0.494 C27.006,0.494 27.71,1.46 27.387,2.657 C27.063,3.855 25.837,4.821 24.639,4.821 L11.233,4.821 L9.241,12.2 L20.908,12.2 C22.106,12.2 22.811,13.165 22.487,14.363 C22.164,15.561 20.938,16.527 19.739,16.527 L8.072,16.527 L5.683,25.374 C5.328,26.687 4.004,27.73 2.69,27.73 C1.338,27.73 0.576,26.687 0.931,25.374 L7.003,2.89 Z" id="Shape"></path>
                    <path d="M20.346,24.447 L36.44,2.04 C37.305,0.842 38.469,0.107 39.822,0.107 L40.053,0.107 C41.405,0.107 42.134,0.841 42.352,2.04 L46.346,24.447 C46.445,24.794 46.429,25.141 46.345,25.451 C46,26.726 44.764,27.73 43.489,27.73 C42.37,27.73 41.774,27.074 41.62,26.069 L40.784,21.008 L27.649,21.008 L23.961,26.223 C23.314,27.189 22.357,27.73 21.352,27.73 C20.116,27.73 19.411,26.764 19.745,25.528 C19.838,25.181 20.048,24.833 20.346,24.447 Z M40.105,16.797 L38.304,5.864 L30.601,16.797 L40.105,16.797 Z" id="Shape"></path>
                    <path d="M50.262,14.093 L50.283,14.016 C52.359,6.328 59.815,0.031 68.006,0.031 C72.178,0.031 74.588,1.267 76.454,3.084 C76.85,3.47 77.099,4.127 76.87,4.978 C76.515,6.291 75.201,7.295 73.887,7.295 C73.231,7.295 72.829,7.063 72.583,6.832 C71.136,5.324 69.377,4.397 66.788,4.397 C61.65,4.397 56.717,8.646 55.288,13.939 L55.267,14.016 C53.838,19.309 56.427,23.597 61.605,23.597 C64.463,23.597 66.646,22.67 69.064,21.009 C69.496,20.7 70.06,20.468 70.64,20.468 C71.837,20.468 72.61,21.473 72.286,22.67 C72.089,23.403 71.584,23.983 71.055,24.37 C67.901,26.61 64.627,28.002 60.262,28.002 C52.379,28.002 48.165,21.859 50.262,14.093 Z" id="Shape"></path>
                    <path d="M87.167,4.898 L80.601,4.898 C79.364,4.898 78.669,3.894 78.993,2.696 C79.316,1.499 80.554,0.494 81.791,0.494 L99.755,0.494 C100.952,0.494 101.647,1.499 101.324,2.696 C101,3.894 99.762,4.898 98.565,4.898 L91.959,4.898 L86.431,25.374 C86.077,26.687 84.713,27.73 83.4,27.73 C82.087,27.73 81.286,26.687 81.641,25.374 L87.167,4.898 Z" id="Shape"></path>
                    <path d="M100.187,16.063 L103.806,2.657 C104.161,1.344 105.486,0.302 106.837,0.302 C108.151,0.302 108.913,1.345 108.558,2.657 L104.992,15.871 C103.636,20.892 105.504,23.558 109.754,23.558 C113.965,23.558 117.231,21.048 118.576,16.064 L122.195,2.658 C122.55,1.345 123.877,0.303 125.228,0.303 C126.542,0.303 127.302,1.346 126.949,2.658 L123.392,15.833 C121.211,23.906 115.556,27.964 108.488,27.964 C101.456,27.963 98.069,23.905 100.187,16.063 Z" id="Shape"></path>
                    <path d="M131.483,2.89 C131.848,1.538 133.172,0.494 134.524,0.494 L144.183,0.494 C147.582,0.494 149.976,1.499 151.258,3.198 C152.289,4.667 152.557,6.676 151.922,9.032 L151.901,9.109 C150.733,13.436 147.512,16.063 143.579,17.183 L146.993,23.712 C147.3,24.291 147.473,24.793 147.274,25.527 C146.92,26.841 145.559,27.729 144.401,27.729 C143.319,27.729 142.76,27.227 142.417,26.494 L138.113,18.11 L132.124,18.11 L130.163,25.373 C129.808,26.686 128.483,27.729 127.171,27.729 C125.819,27.729 125.058,26.686 125.412,25.373 L131.483,2.89 Z M140.216,13.9 C143.616,13.9 146.259,12.123 146.999,9.379 L147.02,9.302 C147.801,6.405 146.143,4.821 142.627,4.821 L135.711,4.821 L133.26,13.9 L140.216,13.9 Z" id="Shape"></path>
                    <path d="M151.476,25.142 L157.484,2.89 C157.849,1.538 159.174,0.494 160.527,0.494 L176.251,0.494 C177.41,0.494 178.115,1.46 177.803,2.62 C177.479,3.816 176.262,4.744 175.104,4.744 L161.737,4.744 L159.839,11.775 L171.468,11.775 C172.626,11.775 173.331,12.741 173.007,13.938 C172.694,15.097 171.48,16.025 170.319,16.025 L158.69,16.025 L156.729,23.288 L170.288,23.288 C171.448,23.288 172.153,24.254 171.841,25.413 C171.517,26.61 170.301,27.537 169.141,27.537 L153.225,27.537 C151.872,27.537 151.11,26.495 151.476,25.142 Z" id="Shape"></path>
                </g>
                <polygon id="Shape" fill="#4EB79D" points="616.075 118.282 405.243 118.282 413.487 87.75 624.319 87.75"></polygon>
                <path d="M616.075,121.282 L405.243,121.282 C404.309,121.282 403.429,120.847 402.861,120.106 C402.293,119.364 402.103,118.401 402.346,117.5 L410.59,86.968 C410.944,85.659 412.131,84.75 413.486,84.75 L624.318,84.75 C625.252,84.75 626.132,85.185 626.7,85.926 C627.267,86.668 627.458,87.631 627.215,88.532 L618.971,119.064 C618.618,120.373 617.431,121.282 616.075,121.282 Z M409.161,115.282 L613.778,115.282 L620.402,90.75 L415.785,90.75 L409.161,115.282 Z" id="Shape" fill="#2C5378"></path>
                <polygon id="Shape" fill="#EFEFEF" points="403.593 254.631 367.31 254.631 405.243 118.282 441.526 118.282"></polygon>
                <path d="M403.593,257.631 L367.31,257.631 C366.372,257.631 365.489,257.193 364.921,256.445 C364.354,255.699 364.168,254.73 364.42,253.827 L402.353,117.478 C402.714,116.18 403.896,115.282 405.243,115.282 L441.526,115.282 C442.464,115.282 443.347,115.72 443.915,116.467 C444.483,117.214 444.668,118.183 444.416,119.086 L406.483,255.434 C406.123,256.732 404.94,257.631 403.593,257.631 Z M371.259,251.631 L401.314,251.631 L437.578,121.282 L407.523,121.282 L371.259,251.631 Z" id="Shape" fill="#2C5378"></path>
                <polygon id="Shape" fill="#EFEFEF" points="506.825 254.631 403.593 254.631 441.526 118.282 544.757 118.282"></polygon>
                <path d="M506.825,257.631 L403.593,257.631 C402.655,257.631 401.772,257.193 401.204,256.445 C400.637,255.699 400.451,254.73 400.703,253.827 L438.636,117.478 C438.997,116.18 440.179,115.282 441.526,115.282 L544.756,115.282 C545.694,115.282 546.577,115.72 547.145,116.467 C547.713,117.214 547.898,118.183 547.647,119.086 L509.715,255.434 C509.354,256.732 508.173,257.631 506.825,257.631 Z M407.542,251.631 L504.546,251.631 L540.809,121.282 L443.806,121.282 L407.542,251.631 Z" id="Shape" fill="#2C5378"></path>
                <polygon id="Shape" fill="#EFEFEF" points="542.483 254.631 506.825 254.631 544.757 118.282 580.415 118.282"></polygon>
                <path d="M542.483,257.631 L506.825,257.631 C505.887,257.631 505.004,257.193 504.436,256.445 C503.869,255.699 503.683,254.73 503.934,253.827 L541.866,117.478 C542.227,116.18 543.409,115.282 544.757,115.282 L580.415,115.282 C581.353,115.282 582.236,115.72 582.804,116.467 C583.372,117.214 583.557,118.183 583.306,119.086 L545.374,255.434 C545.013,256.732 543.831,257.631 542.483,257.631 Z M510.773,251.631 L540.204,251.631 L576.467,121.282 L547.036,121.282 L510.773,251.631 Z" id="Shape" fill="#2C5378"></path>
                <polygon id="Shape" fill="#EFEFEF" points="578.144 254.631 542.483 254.631 580.415 118.282 616.075 118.282"></polygon>
                <path d="M578.144,257.631 L542.484,257.631 C541.546,257.631 540.663,257.193 540.095,256.445 C539.528,255.699 539.342,254.73 539.593,253.827 L577.525,117.478 C577.886,116.18 579.068,115.282 580.416,115.282 L616.076,115.282 C617.014,115.282 617.897,115.72 618.465,116.467 C619.033,117.214 619.218,118.183 618.967,119.086 L581.035,255.434 C580.673,256.732 579.491,257.631 578.144,257.631 Z M546.432,251.631 L575.865,251.631 L612.128,121.282 L582.695,121.282 L546.432,251.631 Z" id="Shape" fill="#2C5378"></path>
                <path d="M391.175,67.396 L590.587,67.396" id="Shape" fill="#FFFFFF"></path>
                <path d="M590.587,70.396 L391.175,70.396 C389.518,70.396 388.175,69.053 388.175,67.396 C388.175,65.739 389.518,64.396 391.175,64.396 L590.587,64.396 C592.244,64.396 593.587,65.739 593.587,67.396 C593.587,69.053 592.244,70.396 590.587,70.396 Z" id="Shape" fill="#2C5378"></path>
                <polygon id="Shape" fill="#4EB79D" points="616.313 320.489 293.83 320.489 335.312 166.854 473.333 252.854 657.796 166.854"></polygon>
                <polygon id="Shape" fill="#58595B" opacity="0.15" points="304.276 312.489 340.226 179.343 472.783 261.938 645.59 181.372 610.188 312.489"></polygon>
                <path d="M616.313,323.989 L293.83,323.989 C292.741,323.989 291.713,323.482 291.051,322.617 C290.389,321.752 290.167,320.629 290.451,319.577 L331.932,165.942 C332.221,164.873 332.998,164.003 334.029,163.597 C335.06,163.192 336.221,163.298 337.162,163.883 L473.574,248.88 L656.317,163.681 C657.55,163.106 659.007,163.299 660.047,164.175 C661.089,165.051 661.528,166.452 661.174,167.766 L619.692,321.4 C619.28,322.929 617.896,323.989 616.313,323.989 Z M298.4,316.989 L613.632,316.989 L652.455,173.206 L474.811,256.026 C473.739,256.528 472.487,256.451 471.481,255.825 L337.46,172.318 L298.4,316.989 Z" id="Shape" fill="#2C5378"></path>
                <path d="M528.349,220.899 C528.349,220.899 515.97,203.766 486.587,203.766 C457.204,203.766 435.572,220.899 435.572,220.899 L293.83,320.489 L616.313,320.489 L528.349,220.899 Z" id="Shape" fill="#4EB79D"></path>
                <path d="M486.587,211.767 C460.511,211.767 440.719,227.031 440.539,227.171 L440.359,227.314 L319.131,312.49 L463.74,312.49 L490.702,211.9 C489.376,211.815 488.008,211.767 486.587,211.767 Z" id="Shape" fill="#58595B" opacity="0.15"></path>
                <path d="M616.313,323.989 L293.83,323.989 C292.304,323.989 290.953,323 290.493,321.544 C290.033,320.089 290.569,318.503 291.818,317.625 L433.485,218.089 C435.245,216.717 456.965,200.267 486.588,200.267 C516.232,200.267 529.605,216.759 531.068,218.691 L618.937,318.172 C619.848,319.204 620.071,320.674 619.504,321.928 C618.938,323.183 617.689,323.989 616.313,323.989 Z M304.899,316.989 L608.551,316.989 L525.725,223.217 C525.649,223.131 525.578,223.042 525.511,222.949 C525.048,222.321 513.65,207.266 486.586,207.266 C458.843,207.266 437.949,223.481 437.741,223.645 C437.691,223.685 437.636,223.726 437.583,223.763 L304.899,316.989 Z" id="Shape" fill="#2C5378"></path>
                <path d="M272.543,81.75 L181.175,81.75 C178.966,81.75 177.175,79.959 177.175,77.75 C177.175,75.541 178.966,73.75 181.175,73.75 L272.543,73.75 C274.752,73.75 276.543,75.541 276.543,77.75 C276.543,79.959 274.752,81.75 272.543,81.75 Z" id="Shape" fill="#2C5378"></path>
                <path d="M352.543,81.75 L312.543,81.75 C310.334,81.75 308.543,79.959 308.543,77.75 C308.543,75.541 310.334,73.75 312.543,73.75 L352.543,73.75 C354.752,73.75 356.543,75.541 356.543,77.75 C356.543,79.959 354.752,81.75 352.543,81.75 Z" id="Shape" fill="#2C5378"></path>
                <path d="M181.175,121.75 L141.175,121.75 C138.966,121.75 137.175,119.959 137.175,117.75 C137.175,115.541 138.966,113.75 141.175,113.75 L181.175,113.75 C183.384,113.75 185.175,115.541 185.175,117.75 C185.175,119.959 183.384,121.75 181.175,121.75 Z" id="Shape" fill="#2C5378"></path>
                <path d="M312.543,121.75 L226.859,121.75 C224.65,121.75 222.859,119.959 222.859,117.75 C222.859,115.541 224.65,113.75 226.859,113.75 L312.543,113.75 C314.752,113.75 316.543,115.541 316.543,117.75 C316.543,119.959 314.752,121.75 312.543,121.75 Z" id="Shape" fill="#2C5378"></path>
                <path d="M206.859,161.75 L121.175,161.75 C118.966,161.75 117.175,159.959 117.175,157.75 C117.175,155.541 118.966,153.75 121.175,153.75 L206.859,153.75 C209.068,153.75 210.859,155.541 210.859,157.75 C210.859,159.959 209.068,161.75 206.859,161.75 Z" id="Shape" fill="#2C5378"></path>
                <path d="M292.543,161.75 L251.175,161.75 C248.966,161.75 247.175,159.959 247.175,157.75 C247.175,155.541 248.966,153.75 251.175,153.75 L292.543,153.75 C294.752,153.75 296.543,155.541 296.543,157.75 C296.543,159.959 294.752,161.75 292.543,161.75 Z" id="Shape" fill="#2C5378"></path>
                <path d="M135.175,201.75 L111.175,201.75 C108.966,201.75 107.175,199.959 107.175,197.75 C107.175,195.541 108.966,193.75 111.175,193.75 L135.175,193.75 C137.384,193.75 139.175,195.541 139.175,197.75 C139.175,199.959 137.384,201.75 135.175,201.75 Z" id="Shape" fill="#2C5378"></path>
                <path d="M282.543,201.75 L169.017,201.75 C166.808,201.75 165.017,199.959 165.017,197.75 C165.017,195.541 166.808,193.75 169.017,193.75 L282.543,193.75 C284.752,193.75 286.543,195.541 286.543,197.75 C286.543,199.959 284.752,201.75 282.543,201.75 Z" id="Shape" fill="#2C5378"></path>
                <path d="M181.175,241.75 L101.175,241.75 C98.966,241.75 97.175,239.959 97.175,237.75 C97.175,235.541 98.966,233.75 101.175,233.75 L181.175,233.75 C183.384,233.75 185.175,235.541 185.175,237.75 C185.175,239.959 183.384,241.75 181.175,241.75 Z" id="Shape" fill="#2C5378"></path>
                <path d="M272.543,241.75 L225.78,241.75 C223.571,241.75 221.78,239.959 221.78,237.75 C221.78,235.541 223.571,233.75 225.78,233.75 L272.543,233.75 C274.752,233.75 276.543,235.541 276.543,237.75 C276.543,239.959 274.752,241.75 272.543,241.75 Z" id="Shape" fill="#2C5378"></path>
                <path d="M332.959,316.847 C333.384,314.812 333.612,312.702 333.612,310.541 C333.612,293.618 319.894,279.897 302.971,279.897 C295.897,279.897 289.388,282.3 284.203,286.327 C281.366,272.454 269.091,262.015 254.379,262.015 C237.57,262.015 223.94,275.643 223.94,292.453 C223.94,293.461 223.993,294.458 224.088,295.441 C222.631,295.142 221.125,294.987 219.58,294.987 C207.193,294.987 197.151,305.03 197.151,317.417 C197.151,319.393 197.432,321.299 197.911,323.124 C195.354,322.195 192.596,321.688 189.717,321.688 C176.445,321.688 165.685,332.448 165.685,345.72 C165.685,358.991 176.445,369.751 189.717,369.751 L189.717,369.751 L331.117,369.751 C345.744,369.751 357.604,357.891 357.604,343.262 C357.604,329.256 346.727,317.794 332.959,316.847 Z" id="Shape" fill="#FFFFFF"></path>
                <path d="M331.117,373.253 L189.717,373.253 C174.536,373.253 162.185,360.902 162.185,345.722 C162.185,330.54 174.536,318.19 189.717,318.19 C191.049,318.19 192.37,318.285 193.674,318.472 C193.659,318.119 193.651,317.768 193.651,317.418 C193.651,303.12 205.283,291.488 219.58,291.488 C219.871,291.488 220.162,291.493 220.453,291.503 C220.959,273.228 235.983,258.516 254.379,258.516 C268.726,258.516 281.421,267.62 286.252,280.767 C291.33,277.897 297.026,276.398 302.972,276.398 C321.798,276.398 337.113,291.714 337.113,310.542 C337.113,311.646 337.059,312.752 336.952,313.854 C350.763,316.59 361.105,328.849 361.105,343.265 C361.104,359.8 347.652,373.253 331.117,373.253 Z M189.717,325.189 C178.396,325.189 169.185,334.4 169.185,345.721 C169.185,357.042 178.396,366.252 189.717,366.252 L331.117,366.252 C343.792,366.252 354.104,355.939 354.104,343.263 C354.104,331.233 344.71,321.162 332.719,320.338 C331.71,320.268 330.78,319.766 330.169,318.959 C329.558,318.152 329.326,317.121 329.533,316.131 C329.917,314.29 330.112,312.409 330.112,310.54 C330.112,295.573 317.937,283.396 302.971,283.396 C296.894,283.396 291.147,285.365 286.349,289.09 C285.394,289.83 284.123,290.028 282.988,289.608 C281.853,289.188 281.016,288.212 280.773,287.027 C278.224,274.562 267.123,265.514 254.378,265.514 C239.524,265.514 227.439,277.599 227.439,292.452 C227.439,293.305 227.483,294.196 227.571,295.104 C227.677,296.209 227.253,297.3 226.427,298.042 C225.601,298.784 224.47,299.089 223.384,298.868 C222.146,298.614 220.866,298.485 219.58,298.485 C209.142,298.485 200.651,306.977 200.651,317.415 C200.651,318.98 200.868,320.602 201.297,322.233 C201.628,323.492 201.232,324.831 200.271,325.708 C199.309,326.584 197.939,326.853 196.717,326.412 C194.478,325.602 192.123,325.189 189.717,325.189 Z" id="Shape" fill="#2C5378"></path>
                <path d="M790.385,279.988 C790.642,278.754 790.781,277.475 790.781,276.166 C790.781,265.906 782.466,257.589 772.206,257.589 C767.918,257.589 763.972,259.046 760.828,261.486 C759.109,253.076 751.667,246.748 742.749,246.748 C732.559,246.748 724.296,255.01 724.296,265.201 C724.296,265.812 724.328,266.416 724.386,267.012 C723.503,266.831 722.589,266.738 721.654,266.738 C714.144,266.738 708.057,272.826 708.057,280.335 C708.057,281.533 708.227,282.689 708.517,283.795 C706.967,283.232 705.295,282.925 703.549,282.925 C695.503,282.925 688.981,289.448 688.981,297.493 C688.981,305.538 695.503,312.061 703.549,312.061 L703.549,312.061 L789.269,312.061 C798.136,312.061 805.327,304.872 805.327,296.003 C805.325,287.511 798.73,280.563 790.385,279.988 Z" id="Shape" fill="#FFFFFF"></path>
                <path d="M789.268,315.561 L703.548,315.561 C693.585,315.561 685.48,307.456 685.48,297.493 C685.48,287.53 693.585,279.425 703.548,279.425 C703.893,279.425 704.236,279.435 704.578,279.454 C705.025,270.69 712.103,263.647 720.881,263.256 C721.869,252.059 731.299,243.249 742.748,243.249 C751.493,243.249 759.289,248.479 762.773,256.198 C765.695,254.81 768.89,254.09 772.205,254.09 C784.377,254.09 794.28,263.993 794.28,276.167 C794.28,276.477 794.273,276.787 794.26,277.097 C802.666,279.322 808.824,287.02 808.824,296.004 C808.825,306.787 800.052,315.561 789.268,315.561 Z M703.548,286.424 C697.444,286.424 692.48,291.389 692.48,297.492 C692.48,303.595 697.445,308.56 703.548,308.56 L789.268,308.56 C796.192,308.56 801.826,302.926 801.826,296.002 C801.826,289.431 796.695,283.93 790.145,283.48 C789.136,283.41 788.207,282.908 787.596,282.102 C786.985,281.295 786.752,280.265 786.958,279.275 C787.172,278.248 787.28,277.202 787.28,276.166 C787.28,267.853 780.517,261.089 772.205,261.089 C768.83,261.089 765.638,262.183 762.974,264.251 C762.018,264.992 760.745,265.189 759.613,264.769 C758.478,264.349 757.641,263.373 757.399,262.188 C755.985,255.27 749.824,250.249 742.749,250.249 C734.504,250.249 727.796,256.957 727.796,265.202 C727.796,265.675 727.82,266.171 727.869,266.676 C727.976,267.781 727.553,268.872 726.726,269.614 C725.901,270.357 724.773,270.664 723.683,270.441 C723.024,270.306 722.341,270.238 721.653,270.238 C716.086,270.238 711.556,274.767 711.556,280.335 C711.556,281.167 711.672,282.032 711.902,282.907 C712.232,284.166 711.836,285.505 710.875,286.382 C709.912,287.258 708.546,287.529 707.32,287.084 C706.116,286.646 704.847,286.424 703.548,286.424 Z" id="Shape" fill="#2C5378"></path>
                <path d="M905.349,371.236 C905.349,368.54 903.163,366.353 900.467,366.353 L5.534,366.353 C2.838,366.353 0.652,368.54 0.652,371.236 L0.652,371.236 C0.652,373.932 2.838,376.119 5.534,376.119 L900.467,376.119 C903.163,376.119 905.349,373.933 905.349,371.236 L905.349,371.236 Z" id="Shape" fill="#2C5378"></path>
            </g>
        </g>
    </g>
</svg>