<?xml version="1.0" encoding="UTF-8"?>
<svg width="14px" height="18px" viewBox="0 0 14 18" version="1.1" xmlns="http://www.w3.org/2000/svg" xmlns:xlink="http://www.w3.org/1999/xlink">
    <!-- Generator: sketchtool 60.1 (101010) - https://sketch.com -->
    <title>643F4325-833B-426A-BF63-65123A328232</title>
    <desc>Created with sketchtool.</desc>
    <g id="UI-Elements" stroke="none" stroke-width="1" fill="none" fill-rule="evenodd">
        <g id="[UI]-Icons" transform="translate(-467.000000, -568.000000)">
            <g id="lock-solid" transform="translate(463.000000, 566.000000)">
                <path d="M10.875,2 C8.23242188,2 6.0625,4.16992188 6.0625,6.8125 L6.0625,8.875 L4,8.875 L4,19.875 L17.75,19.875 L17.75,8.875 L15.6875,8.875 L15.6875,6.8125 C15.6875,4.16992188 13.5175781,2 10.875,2 Z M10.875,3.375 C12.7683104,3.375 14.3125,4.91918963 14.3125,6.8125 L14.3125,8.875 L7.4375,8.875 L7.4375,6.8125 C7.4375,4.91918963 8.98168962,3.375 10.875,3.375 Z M5.375,10.25 L16.375,10.25 L16.375,18.5 L5.375,18.5 L5.375,10.25 Z" id="Shape" fill="#000000" fill-rule="nonzero"></path>
                <polygon id="Path" points="0 0 22 0 22 22 0 22"></polygon>
            </g>
        </g>
    </g>
</svg>