<?xml version="1.0" encoding="UTF-8"?>
<svg width="18px" height="18px" viewBox="0 0 18 18" version="1.1" xmlns="http://www.w3.org/2000/svg" xmlns:xlink="http://www.w3.org/1999/xlink">
    <!-- Generator: sketchtool 60.1 (101010) - https://sketch.com -->
    <title>E3000A54-9574-4ED0-AEE0-D260A854F8F6</title>
    <desc>Created with sketchtool.</desc>
    <g id="UI-Elements" stroke="none" stroke-width="1" fill="none" fill-rule="evenodd">
        <g id="[UI]-Icons" transform="translate(-217.000000, -506.000000)">
            <g id="minus-circle-solid" transform="translate(215.000000, 504.000000)">
                <path d="M10.94,2 C6.01064286,2 2,6.01064286 2,10.94 C2,15.8693571 6.01064286,19.88 10.94,19.88 C15.8693571,19.88 19.88,15.8693571 19.88,10.94 C19.88,6.01064286 15.8693571,2 10.94,2 Z M10.94,3.37538462 C15.1252527,3.37538462 18.5046154,6.75474794 18.5046154,10.94 C18.5046154,15.1252527 15.1252527,18.5046154 10.94,18.5046154 C6.75474794,18.5046154 3.37538462,15.1252527 3.37538462,10.94 C3.37538462,6.75474794 6.75474794,3.37538462 10.94,3.37538462 Z M6.81384615,10.2523077 L6.81384615,11.6276923 L15.0661538,11.6276923 L15.0661538,10.2523077 L6.81384615,10.2523077 Z" id="Shape" fill="#000000" fill-rule="nonzero"></path>
                <polygon id="Path" points="0 0 22 0 22 22 0 22"></polygon>
            </g>
        </g>
    </g>
</svg>