<?xml version="1.0" encoding="UTF-8"?>
<svg width="18px" height="18px" viewBox="0 0 18 18" version="1.1" xmlns="http://www.w3.org/2000/svg" xmlns:xlink="http://www.w3.org/1999/xlink">
    <!-- Generator: sketchtool 60.1 (101010) - https://sketch.com -->
    <title>4E5A7A11-FEF2-41E6-A596-1A806EEB0442</title>
    <desc>Created with sketchtool.</desc>
    <g id="UI-Elements" stroke="none" stroke-width="1" fill="none" fill-rule="evenodd">
        <g id="[UI]-Icons" transform="translate(-828.000000, -318.000000)" stroke="#252631" stroke-width="1.45454545">
            <g id="money-time" transform="translate(829.000000, 318.000000)">
                <path d="M7.27272727,8.72727273 L7.27272727,11.6363636 C7.27272727,12.8414545 9.22618182,13.8181818 11.6363636,13.8181818 C14.0465455,13.8181818 16,12.8414545 16,11.6363636 L16,8.72727273" id="Path"></path>
                <path d="M7.27272727,11.6363636 L7.27272727,14.5454545 C7.27272727,15.7505455 9.22618182,16.7272727 11.6363636,16.7272727 C14.0465455,16.7272727 16,15.7505455 16,14.5454545 L16,11.6363636" id="Path"></path>
                <ellipse id="Oval" stroke-linecap="square" cx="11.6363636" cy="8.72727273" rx="4.36363636" ry="2.18181818"></ellipse>
                <polyline id="Path" stroke-linecap="square" points="5.09090909 3.63636364 5.09090909 5.81818182 2.90909091 5.81818182"></polyline>
                <path d="M5.09090909,10.9090909 C2.46947576,10.9085299 0.277014754,8.9174075 0.0247218465,6.30814298 C-0.227571061,3.69887847 1.54279274,1.3245858 4.11555606,0.8217917 C6.68831939,0.318997605 9.22230255,1.85209349 9.97090909,4.36436364" id="Path" stroke-linecap="square"></path>
            </g>
        </g>
    </g>
</svg>