<?xml version="1.0" encoding="UTF-8"?>
<svg width="18px" height="18px" viewBox="0 0 18 18" version="1.1" xmlns="http://www.w3.org/2000/svg" xmlns:xlink="http://www.w3.org/1999/xlink">
    <!-- Generator: sketchtool 60.1 (101010) - https://sketch.com -->
    <title>50C01905-25D4-46C3-9FCE-6AC79D8A8EDB</title>
    <desc>Created with sketchtool.</desc>
    <g id="UI-Elements" stroke="none" stroke-width="1" fill="none" fill-rule="evenodd">
        <g id="[UI]-Icons" transform="translate(-403.000000, -630.000000)">
            <g id="phone-solid" transform="translate(401.000000, 628.000000)">
                <path d="M5.90956103,2 C5.5495616,2 5.19493495,2.12895514 4.89941241,2.36537291 L4.85642736,2.38686543 L4.83493484,2.40835795 L2.68568245,4.62208791 L2.70717498,4.64358043 C2.04359313,5.25611736 1.83941416,6.17223602 2.12687683,6.964773 C2.12956323,6.97014648 2.12419044,6.98089274 2.12687683,6.98626553 C2.70986137,8.65462252 4.20090538,11.8758147 7.11314236,14.7880517 C10.0361256,17.7110349 13.3003028,19.1429741 14.9149285,19.7743172 L14.936421,19.7743172 C15.7719431,20.05372 16.6773155,19.8549145 17.3220912,19.3014817 L19.4928361,17.1307368 C20.062388,16.5611849 20.062388,15.5725288 19.4928361,15.0029769 L16.698808,12.2089488 L16.6773155,12.1659638 C16.1077636,11.5964119 15.097615,11.5964119 14.5280631,12.1659638 L13.1525416,13.5414853 C12.6555271,13.3023811 11.4707519,12.6898442 10.3370209,11.6071582 C9.21134983,10.532532 8.63642516,9.29671184 8.42418632,8.81313005 L9.79970784,7.43760853 C10.3773196,6.85999678 10.3880659,5.89820668 9.77821532,5.33134119 L9.79970784,5.30984867 L9.73523027,5.2453711 L6.98418722,2.40835795 L6.9626947,2.38686543 L6.91970965,2.36537291 C6.62418779,2.12895514 6.26956115,2 5.90956103,2 Z M5.90956103,3.37552153 C5.96060594,3.37552153 6.01165086,3.39970044 6.06000869,3.4399991 L8.81105174,6.25551972 L8.87552932,6.31999729 C8.87015653,6.3146245 8.91582797,6.38716126 8.83254427,6.47044496 L7.11314236,8.18984686 L6.7907545,8.4907422 L6.94120217,8.92059267 C6.94120217,8.92059267 7.73105277,11.0349199 9.39134989,12.6173068 L9.54179756,12.7462619 C11.1403042,14.2050671 13.0235864,15.0029769 13.0235864,15.0029769 L13.4534369,15.1964096 L15.4952267,13.1546199 C15.6134355,13.036411 15.591943,13.036411 15.7101519,13.1546199 L18.5256725,15.9701405 C18.6438814,16.0883494 18.6438814,16.0453643 18.5256725,16.1635732 L16.4194052,18.2698405 C16.1023908,18.5411835 15.7665696,18.5976019 15.3662715,18.4632733 C13.8080635,17.8507363 10.7803041,16.5208862 8.08030593,13.8208881 C5.35881528,11.0993974 3.93762231,8.01253389 3.41642826,6.51343 C3.31165204,6.23402719 3.38687587,5.82029645 3.6313535,5.610744 L3.67433855,5.56775896 L5.75911336,3.4399991 C5.80747188,3.39970044 5.85851611,3.37552153 5.90956103,3.37552153 Z" id="Shape" fill="#000000" fill-rule="nonzero"></path>
                <polygon id="Path" points="0 0 22 0 22 22 0 22"></polygon>
            </g>
        </g>
    </g>
</svg>