<?xml version="1.0" encoding="UTF-8"?>
<svg width="20px" height="20px" viewBox="0 0 20 20" version="1.1" xmlns="http://www.w3.org/2000/svg" xmlns:xlink="http://www.w3.org/1999/xlink">
    <!-- Generator: sketchtool 60.1 (101010) - https://sketch.com -->
    <title>6EBF26E8-0EA1-41F6-963F-2516F7D215C3</title>
    <desc>Created with sketchtool.</desc>
    <g id="Asset-Artboard-Page" stroke="none" stroke-width="1" fill="none" fill-rule="evenodd">
        <g id="Logo-/-Color-/-Symbol">
            <g id="logo-ico">
                <path d="M6.20134992,19.8212925 L6.20404864,19.8182407 L0.130048644,13.7358703 L0.130048644,6.14369309 L0.136048644,6.14924069 L6.20726121,0.0702406943 L13.7894913,0.0702406943 L13.7860486,0.0732406943 L19.8607925,6.15553139 L19.8607925,13.7478401 L19.8540486,13.7412407 L13.78358,19.8212925 L6.20134992,19.8212925 Z M9.99904864,3.86124069 L3.91904864,9.94124069 L9.99246493,16.0310573 L16.0710486,9.94924069 L9.99904864,3.86124069 Z" id="Combined-Shape" fill="#1EB386"></path>
                <path d="M9.69125127,15.7233926 L9.99837626,16.0310573 L6.21330389,19.8212925 L5.90604754,19.5136278 L9.69125127,15.7233926 Z M16.0757202,9.94576662 L19.8607925,13.7358703 L19.5535362,14.043535 L15.7684638,10.2532999 L16.0757202,9.94576662 Z M0.437304987,5.84786663 L4.22237736,9.63810186 L3.91525237,9.94576662 L0.130048644,6.15553139 L0.437304987,5.84786663 Z M13.78358,0.0702406943 L14.090705,0.377773923 L10.3056326,4.16800912 L9.99837626,3.86034436 L13.78358,0.0702406943 Z" id="Combined-Shape" fill-opacity="0.15862653" fill="#000000"></path>
            </g>
        </g>
    </g>
</svg>