<?xml version="1.0" encoding="UTF-8"?>
<svg width="17px" height="17px" viewBox="0 0 17 17" version="1.1" xmlns="http://www.w3.org/2000/svg" xmlns:xlink="http://www.w3.org/1999/xlink">
    <!-- Generator: sketchtool 60.1 (101010) - https://sketch.com -->
    <title>40C6CC6E-EBAE-4C7C-AA4F-2059960DF897</title>
    <desc>Created with sketchtool.</desc>
    <g id="UI-Elements" stroke="none" stroke-width="1" fill="none" fill-rule="evenodd">
        <g id="[UI]-Icons" transform="translate(-404.000000, -569.000000)">
            <g id="print-solid" transform="translate(401.000000, 566.000000)">
                <path d="M6.4375,3 L6.4375,7.8125 L5.0625,7.8125 C3.93188494,7.8125 3,8.74438494 3,9.875 L3,16.75 L6.4375,16.75 L6.4375,19.5 L16.0625,19.5 L16.0625,16.75 L19.5,16.75 L19.5,9.875 C19.5,8.74438494 18.5681151,7.8125 17.4375,7.8125 L16.0625,7.8125 L16.0625,3 L6.4375,3 Z M7.8125,4.375 L14.6875,4.375 L14.6875,7.8125 L7.8125,7.8125 L7.8125,4.375 Z M5.0625,9.1875 L17.4375,9.1875 C17.8269041,9.1875 18.125,9.48559587 18.125,9.875 L18.125,15.375 L16.0625,15.375 L16.0625,12.625 L6.4375,12.625 L6.4375,15.375 L4.375,15.375 L4.375,9.875 C4.375,9.48559587 4.67309588,9.1875 5.0625,9.1875 Z M5.75,9.875 C5.37133806,9.875 5.0625,10.1838381 5.0625,10.5625 C5.0625,10.9411619 5.37133806,11.25 5.75,11.25 C6.12866194,11.25 6.4375,10.9411619 6.4375,10.5625 C6.4375,10.1838381 6.12866194,9.875 5.75,9.875 Z M7.8125,14 L14.6875,14 L14.6875,18.125 L7.8125,18.125 L7.8125,14 Z" id="Shape" fill="#000000" fill-rule="nonzero"></path>
                <polygon id="Path" points="0 0 22 0 22 22 0 22"></polygon>
            </g>
        </g>
    </g>
</svg>