<svg xmlns="http://www.w3.org/2000/svg" width="24" height="24" viewBox="0 0 24 24">
  <path d="M5,0 L5,7 L3,7 C1.355469,7 0,8.355469 0,10 L0,20 L5,20 L5,24 L19,24 L19,20 L24,20 L24,10 C24,8.355469 22.644531,7 21,7 L19,7 L19,0 L5,0 Z M7,2 L17,2 L17,7 L7,7 L7,2 Z M3,9 L21,9 C21.566406,9 22,9.433594 22,10 L22,18 L19,18 L19,14 L5,14 L5,18 L2,18 L2,10 C2,9.433594 2.433594,9 3,9 Z M4,10 C3.449219,10 3,10.449219 3,11 C3,11.550781 3.449219,12 4,12 C4.550781,12 5,11.550781 5,11 C5,10.449219 4.550781,10 4,10 Z M7,16 L17,16 L17,22 L7,22 L7,16 Z"/>
</svg>
