<?xml version="1.0" encoding="UTF-8"?>
<svg width="17px" height="17px" viewBox="0 0 17 17" version="1.1" xmlns="http://www.w3.org/2000/svg" xmlns:xlink="http://www.w3.org/1999/xlink">
    <!-- Generator: sketchtool 60.1 (101010) - https://sketch.com -->
    <title>BC79FD73-7CCE-4AD6-A35F-FF5291CA6564</title>
    <desc>Created with sketchtool.</desc>
    <g id="UI-Elements" stroke="none" stroke-width="1" fill="none" fill-rule="evenodd">
        <g id="[UI]-Icons" transform="translate(-156.000000, -507.000000)">
            <g id="question-circle" transform="translate(153.000000, 504.000000)">
                <path d="M11.25,3 C6.70068394,3 3,6.70068394 3,11.25 C3,15.7993167 6.70068394,19.5 11.25,19.5 C15.7993167,19.5 19.5,15.7993167 19.5,11.25 C19.5,6.70068394 15.7993167,3 11.25,3 Z M11.25,4.375 C15.0554198,4.375 18.125,7.44458025 18.125,11.25 C18.125,15.0554198 15.0554198,18.125 11.25,18.125 C7.44458025,18.125 4.375,15.0554198 4.375,11.25 C4.375,7.44458025 7.44458025,4.375 11.25,4.375 Z M11.25,7.125 C9.73803694,7.125 8.5,8.36303694 8.5,9.875 L9.875,9.875 C9.875,9.10693394 10.4819339,8.5 11.25,8.5 C12.0180667,8.5 12.625,9.10693394 12.625,9.875 C12.625,10.4013672 12.2866214,10.8686527 11.7871094,11.0351562 L11.5078125,11.1210938 C10.9465334,11.3063963 10.5625,11.8435057 10.5625,12.4316406 L10.5625,13.3125 L11.9375,13.3125 L11.9375,12.4316406 L12.2167969,12.3457031 C13.2749027,11.9938963 14,10.9895021 14,9.875 C14,8.36303694 12.7619631,7.125 11.25,7.125 Z M10.5625,14 L10.5625,15.375 L11.9375,15.375 L11.9375,14 L10.5625,14 Z" id="Shape" fill="#000000" fill-rule="nonzero"></path>
                <polygon id="Path" points="0 0 22 0 22 22 0 22"></polygon>
            </g>
        </g>
    </g>
</svg>