<svg xmlns="http://www.w3.org/2000/svg" width="24" height="24" viewBox="0 0 24 24">
  <path d="M12,0 C5.382813,0 0,5.382813 0,12 C0,18.617188 5.382813,24 12,24 C18.617188,24 24,18.617188 24,12 C24,5.382813 18.617188,0 12,0 Z M12,2 C17.535156,2 22,6.464844 22,12 C22,17.535156 17.535156,22 12,22 C6.464844,22 2,17.535156 2,12 C2,6.464844 6.464844,2 12,2 Z M12,6 C9.800781,6 8,7.800781 8,10 L10,10 C10,8.882813 10.882813,8 12,8 C13.117188,8 14,8.882813 14,10 C14,10.765625 13.507813,11.445313 12.78125,11.6875 L12.375,11.8125 C11.558594,12.082031 11,12.863281 11,13.71875 L11,15 L13,15 L13,13.71875 L13.40625,13.59375 C14.945313,13.082031 16,11.621094 16,10 C16,7.800781 14.199219,6 12,6 Z M11,16 L11,18 L13,18 L13,16 L11,16 Z"/>
</svg>
