<?xml version="1.0" encoding="UTF-8"?>
<svg width="16px" height="16px" viewBox="0 0 16 16" version="1.1" xmlns="http://www.w3.org/2000/svg" xmlns:xlink="http://www.w3.org/1999/xlink">
    <!-- Generator: sketchtool 60.1 (101010) - https://sketch.com -->
    <title>3B6A3599-899A-48BB-8FA3-CAE99ADA1A2A</title>
    <desc>Created with sketchtool.</desc>
    <g id="UI-Elements" stroke="none" stroke-width="1" fill="none" fill-rule="evenodd">
        <g id="[UI]-Icons" transform="translate(-590.000000, -507.000000)">
            <g id="save" transform="translate(587.000000, 504.000000)">
                <path d="M3,3 L3,18.13 L18.13,18.13 L18.13,6.15924716 L17.9365767,5.94433239 L15.1856676,3.1934233 L14.9707528,3 L3,3 Z M4.37545455,4.37545455 L6.43863636,4.37545455 L6.43863636,8.50181818 L14.6913636,8.50181818 L14.6913636,4.67633523 L16.7545455,6.73951705 L16.7545455,16.7545455 L15.3790909,16.7545455 L15.3790909,10.565 L5.75090909,10.565 L5.75090909,16.7545455 L4.37545455,16.7545455 L4.37545455,4.37545455 Z M7.81409091,4.37545455 L10.565,4.37545455 L10.565,5.75090909 L11.9404545,5.75090909 L11.9404545,4.37545455 L13.3159091,4.37545455 L13.3159091,7.12636364 L7.81409091,7.12636364 L7.81409091,4.37545455 Z M7.12636364,11.9404545 L14.0036364,11.9404545 L14.0036364,16.7545455 L7.12636364,16.7545455 L7.12636364,11.9404545 Z" id="Shape" fill="#000000" fill-rule="nonzero"></path>
                <polygon id="Path" points="0 0 22 0 22 22 0 22"></polygon>
            </g>
        </g>
    </g>
</svg>