<svg xmlns="http://www.w3.org/2000/svg" width="26" height="26" viewBox="0 0 26 26">
  <path d="M16,0 C10.488281,0 6,4.488281 6,10 C6,12.394531 6.839844,14.589844 8.25,16.3125 L0.28125,24.28125 L1.71875,25.71875 L9.6875,17.75 C11.410156,19.160156 13.605469,20 16,20 C21.511719,20 26,15.511719 26,10 C26,4.488281 21.511719,0 16,0 Z M16,2 C20.429688,2 24,5.570313 24,10 C24,14.429688 20.429688,18 16,18 C11.570313,18 8,14.429688 8,10 C8,5.570313 11.570313,2 16,2 Z M15,6 L15,9 L12,9 L12,11 L15,11 L15,14 L17,14 L17,11 L20,11 L20,9 L17,9 L17,6 L15,6 Z"/>
</svg>
