<?xml version="1.0" encoding="UTF-8"?>
<svg width="17px" height="16px" viewBox="0 0 17 16" version="1.1" xmlns="http://www.w3.org/2000/svg" xmlns:xlink="http://www.w3.org/1999/xlink">
    <!-- Generator: sketchtool 60.1 (101010) - https://sketch.com -->
    <title>56F42F6E-E39B-4F61-838E-5936E9A65C91</title>
    <desc>Created with sketchtool.</desc>
    <g id="UI-Elements" stroke="none" stroke-width="1" fill="none" fill-rule="evenodd">
        <g id="[UI]-Icons" transform="translate(-342.000000, -507.000000)">
            <g id="sliders-h-solid" transform="translate(339.000000, 504.000000)">
                <path d="M10.5625,3 C9.67358381,3 8.91625994,3.58007812 8.62890625,4.375 L3,4.375 L3,5.75 L8.62890625,5.75 C8.91625994,6.54492188 9.67358381,7.125 10.5625,7.125 C11.4514162,7.125 12.2087401,6.54492188 12.4960938,5.75 L19.5,5.75 L19.5,4.375 L12.4960938,4.375 C12.2087401,3.58007812 11.4514162,3 10.5625,3 Z M10.5625,4.375 C10.9492188,4.375 11.25,4.67578125 11.25,5.0625 C11.25,5.44921875 10.9492188,5.75 10.5625,5.75 C10.1757812,5.75 9.875,5.44921875 9.875,5.0625 C9.875,4.67578125 10.1757812,4.375 10.5625,4.375 Z M15.375,8.5 C14.4860838,8.5 13.7287599,9.08007813 13.4414062,9.875 L3,9.875 L3,11.25 L13.4414062,11.25 C13.7287599,12.0449219 14.4860838,12.625 15.375,12.625 C16.2639162,12.625 17.0212401,12.0449219 17.3085938,11.25 L19.5,11.25 L19.5,9.875 L17.3085938,9.875 C17.0212401,9.08007813 16.2639162,8.5 15.375,8.5 Z M15.375,9.875 C15.7617188,9.875 16.0625,10.1757812 16.0625,10.5625 C16.0625,10.9492188 15.7617188,11.25 15.375,11.25 C14.9882812,11.25 14.6875,10.9492188 14.6875,10.5625 C14.6875,10.1757812 14.9882812,9.875 15.375,9.875 Z M7.8125,14 C6.92358381,14 6.16625994,14.5800781 5.87890625,15.375 L3,15.375 L3,16.75 L5.87890625,16.75 C6.16625994,17.5449219 6.92358381,18.125 7.8125,18.125 C8.70141619,18.125 9.45874006,17.5449219 9.74609375,16.75 L19.5,16.75 L19.5,15.375 L9.74609375,15.375 C9.45874006,14.5800781 8.70141619,14 7.8125,14 Z M7.8125,15.375 C8.19921875,15.375 8.5,15.6757812 8.5,16.0625 C8.5,16.4492188 8.19921875,16.75 7.8125,16.75 C7.42578125,16.75 7.125,16.4492188 7.125,16.0625 C7.125,15.6757812 7.42578125,15.375 7.8125,15.375 Z" id="Shape" fill="#000000" fill-rule="nonzero"></path>
                <polygon id="Path" points="0 0 22 0 22 22 0 22"></polygon>
            </g>
        </g>
    </g>
</svg>