<?xml version="1.0" encoding="UTF-8"?>
<svg width="20px" height="19px" viewBox="0 0 20 19" version="1.1" xmlns="http://www.w3.org/2000/svg" xmlns:xlink="http://www.w3.org/1999/xlink">
    <!-- Generator: sketchtool 60.1 (101010) - https://sketch.com -->
    <title>EDF92532-89C0-4CF9-861E-9943834D2888</title>
    <desc>Created with sketchtool.</desc>
    <g id="UI-Elements" stroke="none" stroke-width="1" fill="none" fill-rule="evenodd">
        <g id="[UI]-Icons" transform="translate(-278.000000, -382.000000)">
            <g id="star" transform="translate(277.000000, 380.000000)">
                <path d="M10.86,2 L10.237037,3.41777778 L8.00296296,8.42296296 L2.54666667,9.00296296 L1,9.17481481 L2.16,10.2059259 L6.22,13.8792593 L5.08148148,19.2496296 L4.75925926,20.7533333 L6.11259259,19.98 L10.86,17.2303704 L15.6074074,19.98 L16.9607407,20.7533333 L16.6385185,19.2496296 L15.5,13.8792593 L19.56,10.2059259 L20.72,9.17481481 L19.1733333,9.00296296 L13.717037,8.42296296 L11.482963,3.41777778 L10.86,2 Z M10.86,5.37259259 L12.6214815,9.34666667 L12.7933333,9.71185185 L13.18,9.75481481 L17.4977778,10.2059259 L14.2755556,13.1059259 L13.9748148,13.3851852 L14.0607407,13.7718519 L14.962963,18.0037037 L11.2037037,15.8555556 L10.86,15.6407407 L10.5162963,15.8555556 L6.75703704,18.0037037 L7.65925926,13.7718519 L7.74518519,13.3851852 L7.44444444,13.1059259 L4.22222222,10.2059259 L8.54,9.75481481 L8.92666667,9.71185185 L9.09851852,9.34666667 L10.86,5.37259259 Z" id="Shape" fill="#000000" fill-rule="nonzero"></path>
                <polygon id="Path" points="0 0 22 0 22 22 0 22"></polygon>
            </g>
        </g>
    </g>
</svg>