<svg xmlns="http://www.w3.org/2000/svg" width="30" height="28" viewBox="0 0 30 28">
  <path d="M15,0.125 L14.09375,2.1875 L10.84375,9.46875 L2.90625,10.3125 L0.65625,10.5625 L2.34375,12.0625 L8.25,17.40625 L6.59375,25.21875 L6.125,27.40625 L8.09375,26.28125 L15,22.28125 L21.90625,26.28125 L23.875,27.40625 L23.40625,25.21875 L21.75,17.40625 L27.65625,12.0625 L29.34375,10.5625 L27.09375,10.3125 L19.15625,9.46875 L15.90625,2.1875 L15,0.125 Z M15,5.03125 L17.5625,10.8125 L17.8125,11.34375 L18.375,11.40625 L24.65625,12.0625 L19.96875,16.28125 L19.53125,16.6875 L19.65625,17.25 L20.96875,23.40625 L15.5,20.28125 L15,19.96875 L14.5,20.28125 L9.03125,23.40625 L10.34375,17.25 L10.46875,16.6875 L10.03125,16.28125 L5.34375,12.0625 L11.625,11.40625 L12.1875,11.34375 L12.4375,10.8125 L15,5.03125 Z"/>
</svg>
