<svg xmlns="http://www.w3.org/2000/svg" width="24" height="20" viewBox="0 0 24 20">
  <path d="M12,0 C5.382813,0 0,5.382813 0,12 C0,14.894531 1.035156,17.550781 2.75,19.625 L3.03125,20 L20.96875,20 L21.25,19.625 C22.964844,17.550781 24,14.894531 24,12 C24,5.382813 18.617188,0 12,0 Z M12,2 C17.535156,2 22,6.464844 22,12 C22,14.265625 21.207031,16.324219 19.9375,18 L4.0625,18 C2.792969,16.324219 2,14.265625 2,12 C2,6.464844 6.464844,2 12,2 Z M12,3 C11.449219,3 11,3.449219 11,4 C11,4.550781 11.449219,5 12,5 C12.550781,5 13,4.550781 13,4 C13,3.449219 12.550781,3 12,3 Z M8,4.0625 C7.449219,4.0625 7,4.511719 7,5.0625 C7,5.613281 7.449219,6.0625 8,6.0625 C8.550781,6.0625 9,5.613281 9,5.0625 C9,4.511719 8.550781,4.0625 8,4.0625 Z M16,4.0625 C15.449219,4.0625 15,4.511719 15,5.0625 C15,5.613281 15.449219,6.0625 16,6.0625 C16.550781,6.0625 17,5.613281 17,5.0625 C17,4.511719 16.550781,4.0625 16,4.0625 Z M5.0625,7 C4.511719,7 4.0625,7.449219 4.0625,8 C4.0625,8.550781 4.511719,9 5.0625,9 C5.613281,9 6.0625,8.550781 6.0625,8 C6.0625,7.449219 5.613281,7 5.0625,7 Z M18.65625,7.03125 L13,10.28125 C12.707031,10.109375 12.363281,10 12,10 C10.894531,10 10,10.894531 10,12 C10,13.105469 10.894531,14 12,14 C13.09375,14 13.984375,13.121094 14,12.03125 C14,12.019531 14,12.011719 14,12 L19.65625,8.78125 L18.65625,7.03125 Z M4,11 C3.449219,11 3,11.449219 3,12 C3,12.550781 3.449219,13 4,13 C4.550781,13 5,12.550781 5,12 C5,11.449219 4.550781,11 4,11 Z M20,11 C19.449219,11 19,11.449219 19,12 C19,12.550781 19.449219,13 20,13 C20.550781,13 21,12.550781 21,12 C21,11.449219 20.550781,11 20,11 Z M5.0625,15 C4.511719,15 4.0625,15.449219 4.0625,16 C4.0625,16.550781 4.511719,17 5.0625,17 C5.613281,17 6.0625,16.550781 6.0625,16 C6.0625,15.449219 5.613281,15 5.0625,15 Z M18.9375,15 C18.386719,15 17.9375,15.449219 17.9375,16 C17.9375,16.550781 18.386719,17 18.9375,17 C19.488281,17 19.9375,16.550781 19.9375,16 C19.9375,15.449219 19.488281,15 18.9375,15 Z"/>
</svg>
