<?xml version="1.0" encoding="UTF-8"?>
<svg width="17px" height="14px" viewBox="0 0 17 14" version="1.1" xmlns="http://www.w3.org/2000/svg" xmlns:xlink="http://www.w3.org/1999/xlink">
    <!-- Generator: sketchtool 60.1 (101010) - https://sketch.com -->
    <title>16598961-BA62-42CA-8EDD-69867FE826D5</title>
    <desc>Created with sketchtool.</desc>
    <g id="UI-Elements" stroke="none" stroke-width="1" fill="none" fill-rule="evenodd">
        <g id="[UI]-Icons" transform="translate(-342.000000, -632.000000)">
            <g id="tachometer-alt-solid" transform="translate(339.000000, 628.000000)">
                <path d="M11.25,4 C6.70068394,4 3,7.70068394 3,12.25 C3,14.2399901 3.71166975,16.0661619 4.890625,17.4921875 L5.08398438,17.75 L17.4160156,17.75 L17.609375,17.4921875 C18.7883303,16.0661619 19.5,14.2399901 19.5,12.25 C19.5,7.70068394 15.7993167,4 11.25,4 Z M11.25,5.375 C15.0554198,5.375 18.125,8.44458025 18.125,12.25 C18.125,13.8076172 17.5798338,15.2229006 16.7070312,16.375 L5.79296875,16.375 C4.92016619,15.2229006 4.375,13.8076172 4.375,12.25 C4.375,8.44458025 7.44458025,5.375 11.25,5.375 Z M11.25,6.0625 C10.8713381,6.0625 10.5625,6.37133806 10.5625,6.75 C10.5625,7.12866194 10.8713381,7.4375 11.25,7.4375 C11.6286619,7.4375 11.9375,7.12866194 11.9375,6.75 C11.9375,6.37133806 11.6286619,6.0625 11.25,6.0625 Z M8.5,6.79296875 C8.12133806,6.79296875 7.8125,7.10180681 7.8125,7.48046875 C7.8125,7.85913069 8.12133806,8.16796875 8.5,8.16796875 C8.87866194,8.16796875 9.1875,7.85913069 9.1875,7.48046875 C9.1875,7.10180681 8.87866194,6.79296875 8.5,6.79296875 Z M14,6.79296875 C13.6213381,6.79296875 13.3125,7.10180681 13.3125,7.48046875 C13.3125,7.85913069 13.6213381,8.16796875 14,8.16796875 C14.3786619,8.16796875 14.6875,7.85913069 14.6875,7.48046875 C14.6875,7.10180681 14.3786619,6.79296875 14,6.79296875 Z M6.48046875,8.8125 C6.10180681,8.8125 5.79296875,9.12133806 5.79296875,9.5 C5.79296875,9.87866194 6.10180681,10.1875 6.48046875,10.1875 C6.85913069,10.1875 7.16796875,9.87866194 7.16796875,9.5 C7.16796875,9.12133806 6.85913069,8.8125 6.48046875,8.8125 Z M15.8261719,8.83398438 L11.9375,11.0683594 C11.7360838,10.9501953 11.4997557,10.875 11.25,10.875 C10.4899901,10.875 9.875,11.4899901 9.875,12.25 C9.875,13.0100099 10.4899901,13.625 11.25,13.625 C12.0019531,13.625 12.6142578,13.0207521 12.625,12.2714844 C12.625,12.2634276 12.625,12.2580568 12.625,12.25 L16.5136719,10.0371094 L15.8261719,8.83398438 Z M5.75,11.5625 C5.37133806,11.5625 5.0625,11.8713381 5.0625,12.25 C5.0625,12.6286619 5.37133806,12.9375 5.75,12.9375 C6.12866194,12.9375 6.4375,12.6286619 6.4375,12.25 C6.4375,11.8713381 6.12866194,11.5625 5.75,11.5625 Z M16.75,11.5625 C16.3713381,11.5625 16.0625,11.8713381 16.0625,12.25 C16.0625,12.6286619 16.3713381,12.9375 16.75,12.9375 C17.1286619,12.9375 17.4375,12.6286619 17.4375,12.25 C17.4375,11.8713381 17.1286619,11.5625 16.75,11.5625 Z M6.48046875,14.3125 C6.10180681,14.3125 5.79296875,14.6213381 5.79296875,15 C5.79296875,15.3786619 6.10180681,15.6875 6.48046875,15.6875 C6.85913069,15.6875 7.16796875,15.3786619 7.16796875,15 C7.16796875,14.6213381 6.85913069,14.3125 6.48046875,14.3125 Z M16.0195312,14.3125 C15.6408693,14.3125 15.3320312,14.6213381 15.3320312,15 C15.3320312,15.3786619 15.6408693,15.6875 16.0195312,15.6875 C16.3981932,15.6875 16.7070312,15.3786619 16.7070312,15 C16.7070312,14.6213381 16.3981932,14.3125 16.0195312,14.3125 Z" id="Shape" fill="#000000" fill-rule="nonzero"></path>
                <polygon id="Path" points="0 0 22 0 22 22 0 22"></polygon>
            </g>
        </g>
    </g>
</svg>