<?xml version="1.0" encoding="UTF-8"?>
<svg width="27px" height="26px" viewBox="0 0 27 26" version="1.1" xmlns="http://www.w3.org/2000/svg" xmlns:xlink="http://www.w3.org/1999/xlink">
    <!-- Generator: sketchtool 60.1 (101010) - https://sketch.com -->
    <title>6F664518-EE4F-4BD6-B4D7-9762FFD9148E</title>
    <desc>Created with sketchtool.</desc>
    <g id="UI-Elements" stroke="none" stroke-width="1" fill="none" fill-rule="evenodd">
        <g id="[UI]-Icons" transform="translate(-518.000000, -566.000000)" fill="#000000" fill-rule="nonzero">
            <g id="tags-solid" transform="translate(518.000000, 566.000000)">
                <path d="M12.59375,0 L12.28125,0.28125 L1.28125,11.28125 L0.59375,12 L1.28125,12.71875 L10.28125,21.71875 L11,22.40625 L11.71875,21.71875 L22.71875,10.71875 L23,10.40625 L23,0 L12.59375,0 Z M13.4375,2 L21,2 L21,9.5625 L11,19.5625 L3.4375,12 L13.4375,2 Z M24,3 L24,5 L25,5 L25,13.15625 L15.5,22.59375 L14.25,21.34375 L12.84375,22.75 L14.78125,24.71875 L15.5,25.40625 L16.1875,24.71875 L26.71875,14.3125 L27,14 L27,3 L24,3 Z M18,4 C17.449219,4 17,4.449219 17,5 C17,5.550781 17.449219,6 18,6 C18.550781,6 19,5.550781 19,5 C19,4.449219 18.550781,4 18,4 Z" id="Shape"></path>
            </g>
        </g>
    </g>
</svg>