<?xml version="1.0" encoding="UTF-8"?>
<svg width="19px" height="18px" viewBox="0 0 19 18" version="1.1" xmlns="http://www.w3.org/2000/svg" xmlns:xlink="http://www.w3.org/1999/xlink">
    <!-- Generator: sketchtool 60.1 (101010) - https://sketch.com -->
    <title>5A446A82-3D09-420C-8D61-109D230DBD00</title>
    <desc>Created with sketchtool.</desc>
    <g id="UI-Elements" stroke="none" stroke-width="1" fill="none" fill-rule="evenodd">
        <g id="[UI]-Icons" transform="translate(-527.000000, -630.000000)">
            <g id="tags-solid" transform="translate(525.000000, 628.000000)">
                <path d="M10.2480473,2 L10.0332544,2.19331361 L2.47254438,9.75402367 L2,10.2480473 L2.47254438,10.742071 L8.65857988,16.9281065 L9.15260355,17.4006509 L9.64662722,16.9281065 L17.2073373,9.36739645 L17.4006509,9.15260355 L17.4006509,2 L10.2480473,2 Z M10.8279882,3.37467456 L16.0259763,3.37467456 L16.0259763,8.57266272 L9.15260355,15.4460355 L3.95461538,10.2480473 L10.8279882,3.37467456 Z M18.0879882,4.06201183 L18.0879882,5.43668639 L18.7753254,5.43668639 L18.7753254,11.0427811 L12.2456213,17.5295266 L11.3864497,16.670355 L10.4198817,17.6369231 L11.7515976,18.9901183 L12.2456213,19.4626627 L12.7181657,18.9901183 L19.9566864,11.8375148 L20.15,11.6227219 L20.15,4.06201183 L18.0879882,4.06201183 Z M13.9639645,4.74934911 C13.5853922,4.74934911 13.2766272,5.05811408 13.2766272,5.43668639 C13.2766272,5.8152587 13.5853922,6.12402367 13.9639645,6.12402367 C14.3425368,6.12402367 14.6513018,5.8152587 14.6513018,5.43668639 C14.6513018,5.05811408 14.3425368,4.74934911 13.9639645,4.74934911 Z" id="Shape" fill="#000000" fill-rule="nonzero"></path>
                <polygon id="Path" points="0 0 22 0 22 22 0 22"></polygon>
            </g>
        </g>
    </g>
</svg>