<?xml version="1.0" encoding="UTF-8"?>
<svg width="18px" height="18px" viewBox="0 0 18 18" version="1.1" xmlns="http://www.w3.org/2000/svg" xmlns:xlink="http://www.w3.org/1999/xlink">
    <!-- Generator: sketchtool 60.1 (101010) - https://sketch.com -->
    <title>037DC4BC-8109-48EA-BD5C-90D0D17298D1</title>
    <desc>Created with sketchtool.</desc>
    <g id="UI-Elements" stroke="none" stroke-width="1" fill="none" fill-rule="evenodd">
        <g id="[UI]-Icons" transform="translate(-527.000000, -444.000000)">
            <g id="times-circle" transform="translate(525.000000, 442.000000)">
                <path d="M10.94,2 C6.01064286,2 2,6.01064286 2,10.94 C2,15.8693571 6.01064286,19.88 10.94,19.88 C15.8693571,19.88 19.88,15.8693571 19.88,10.94 C19.88,6.01064286 15.8693571,2 10.94,2 Z M10.94,3.37538462 C15.1252527,3.37538462 18.5046154,6.75474794 18.5046154,10.94 C18.5046154,15.1252527 15.1252527,18.5046154 10.94,18.5046154 C6.75474794,18.5046154 3.37538462,15.1252527 3.37538462,10.94 C3.37538462,6.75474794 6.75474794,3.37538462 10.94,3.37538462 Z M8.33966346,7.35110577 L7.35110577,8.33966346 L9.95144231,10.94 L7.35110577,13.5403365 L8.33966346,14.5288942 L10.94,11.9285577 L13.5403365,14.5288942 L14.5288942,13.5403365 L11.9285577,10.94 L14.5288942,8.33966346 L13.5403365,7.35110577 L10.94,9.95144231 L8.33966346,7.35110577 Z" id="Shape" fill="#000000" fill-rule="nonzero"></path>
                <polygon id="Path" points="0 0 22 0 22 22 0 22"></polygon>
            </g>
        </g>
    </g>
</svg>