<svg xmlns="http://www.w3.org/2000/svg" width="26" height="26" viewBox="0 0 26 26">
  <path d="M13,0 C5.832031,0 0,5.832031 0,13 C0,20.167969 5.832031,26 13,26 C20.167969,26 26,20.167969 26,13 C26,5.832031 20.167969,0 13,0 Z M13,2 C19.085938,2 24,6.914063 24,13 C24,19.085938 19.085938,24 13,24 C6.914063,24 2,19.085938 2,13 C2,6.914063 6.914063,2 13,2 Z M9.21875,7.78125 L7.78125,9.21875 L11.5625,13 L7.78125,16.78125 L9.21875,18.21875 L13,14.4375 L16.78125,18.21875 L18.21875,16.78125 L14.4375,13 L18.21875,9.21875 L16.78125,7.78125 L13,11.5625 L9.21875,7.78125 Z"/>
</svg>
