<svg xmlns="http://www.w3.org/2000/svg" width="20" height="24" viewBox="0 0 20 24">
  <path d="M8,0 C7.476563,0 6.941406,0.183594 6.5625,0.5625 C6.183594,0.941406 6,1.476563 6,2 L6,3 L0,3 L0,5 L1,5 L1,21 C1,22.644531 2.355469,24 4,24 L16,24 C17.644531,24 19,22.644531 19,21 L19,5 L20,5 L20,3 L14,3 L14,2 C14,1.476563 13.816406,0.941406 13.4375,0.5625 C13.058594,0.183594 12.523438,0 12,0 L8,0 Z M8,2 L12,2 L12,3 L8,3 L8,2 Z M3,5 L17,5 L17,21 C17,21.554688 16.554688,22 16,22 L4,22 C3.445313,22 3,21.554688 3,21 L3,5 Z M5,8 L5,19 L7,19 L7,8 L5,8 Z M9,8 L9,19 L11,19 L11,8 L9,8 Z M13,8 L13,19 L15,19 L15,8 L13,8 Z"/>
</svg>
