<?xml version="1.0" encoding="UTF-8"?>
<svg width="18px" height="18px" viewBox="0 0 18 18" version="1.1" xmlns="http://www.w3.org/2000/svg" xmlns:xlink="http://www.w3.org/1999/xlink">
    <!-- Generator: sketchtool 60.1 (101010) - https://sketch.com -->
    <title>B11787D9-051D-4B42-8E02-99AA29681B69</title>
    <desc>Created with sketchtool.</desc>
    <g id="UI-Elements" stroke="none" stroke-width="1" fill="none" fill-rule="evenodd">
        <g id="[UI]-Icons" transform="translate(-527.000000, -382.000000)">
            <g id="undo-alt-solid" transform="translate(525.000000, 380.000000)">
                <path d="M10.94,2 C8.18923077,2 5.71353846,3.23730886 4.06307692,5.23161662 L4.06307692,2.68769231 L2.68769231,2.68769231 L2.68769231,8.18923077 L8.18923077,8.18923077 L8.18923077,6.81384615 L4.61376799,6.81384615 C5.98915261,4.75076923 8.258,3.37538462 10.94,3.37538462 C15.1349231,3.37538462 18.5046154,6.74507692 18.5046154,10.94 C18.5046154,15.1349231 15.1349231,18.5046154 10.94,18.5046154 C6.74507692,18.5046154 3.37538462,15.1349231 3.37538462,10.94 L2,10.94 C2,15.8913846 5.98861538,19.88 10.94,19.88 C15.8913846,19.88 19.88,15.8913846 19.88,10.94 C19.88,5.98861538 15.8913846,2 10.94,2 Z" id="Path" fill="#000000" fill-rule="nonzero"></path>
                <polygon id="Path" points="0 0 22 0 22 22 0 22"></polygon>
            </g>
        </g>
    </g>
</svg>