<svg xmlns="http://www.w3.org/2000/svg" width="20" height="22" viewBox="0 0 20 22">
  <path d="M10,0 C6.144531,0 3,3.144531 3,7 C3,9.410156 4.230469,11.550781 6.09375,12.8125 C2.527344,14.34375 0,17.882813 0,22 L2,22 C2,17.570313 5.570313,14 10,14 C14.429688,14 18,17.570313 18,22 L20,22 C20,17.882813 17.472656,14.34375 13.90625,12.8125 C15.769531,11.550781 17,9.410156 17,7 C17,3.144531 13.855469,0 10,0 Z M10,2 C12.773438,2 15,4.226563 15,7 C15,9.773438 12.773438,12 10,12 C7.226563,12 5,9.773438 5,7 C5,4.226563 7.226563,2 10,2 Z"/>
</svg>
