<?xml version="1.0" encoding="UTF-8"?>
<svg width="18px" height="19px" viewBox="0 0 18 19" version="1.1" xmlns="http://www.w3.org/2000/svg" xmlns:xlink="http://www.w3.org/1999/xlink">
    <!-- Generator: sketchtool 60.1 (101010) - https://sketch.com -->
    <title>DC902E70-C6CF-488C-B7E3-75366704C5CE</title>
    <desc>Created with sketchtool.</desc>
    <g id="UI-Elements" stroke="none" stroke-width="1" fill="none" fill-rule="evenodd">
        <g id="[UI]-Icons" transform="translate(-279.000000, -692.000000)">
            <g id="user-cog-solid" transform="translate(277.000000, 690.000000)">
                <path d="M8.87692308,2 C6.19492308,2 4.06307692,4.13184615 4.06307692,6.81384615 C4.06307692,8.49009615 4.8951578,9.95077043 6.17450687,10.8110577 C3.72611588,11.8665485 2,14.3052759 2,17.1292308 L3.37538462,17.1292308 C3.37538462,14.1033846 5.85107692,11.6276923 8.87692308,11.6276923 C11.5589231,11.6276923 13.6907692,9.49584615 13.6907692,6.81384615 C13.6907692,4.13184615 11.5589231,2 8.87692308,2 Z M8.87692308,3.37538462 C10.8024615,3.37538462 12.3153846,4.88830769 12.3153846,6.81384615 C12.3153846,8.73938462 10.8024615,10.2523077 8.87692308,10.2523077 C6.95138462,10.2523077 5.43846154,8.73938462 5.43846154,6.81384615 C5.43846154,4.88830769 6.95138462,3.37538462 8.87692308,3.37538462 Z M14.4469619,10.94 L14.4469619,12.383885 C14.0343465,12.4526542 13.6222689,12.6597679 13.2784227,12.8660755 L12.2468843,11.8345371 L11.2838462,12.7962321 L12.3153846,13.8277706 C12.0403077,14.1716168 11.9033063,14.5847692 11.8345371,15.0661538 L10.2523077,15.0661538 L10.2523077,16.4415385 L11.6961927,16.4415385 C11.7649619,16.8541538 11.9720755,17.2673063 12.1783832,17.6799217 L11.1468448,18.7114602 L12.1085398,19.6731552 L13.1400783,18.6416168 C13.4839245,18.8479245 13.8973458,19.0550381 14.3099612,19.1238073 L14.3099612,20.5676923 L15.6853458,20.5676923 L15.6853458,19.1238073 C16.0979612,19.0550381 16.5100388,18.8479245 16.853885,18.6416168 L17.8854234,19.6731552 L18.8484615,18.7114602 L17.8169231,17.6799217 C18.092,17.3360755 18.2290014,16.9229231 18.2977706,16.4415385 L19.88,16.4415385 L19.88,15.0661538 L18.436115,15.0661538 C18.3673458,14.6535385 18.1602321,14.240386 17.9539245,13.8277706 L18.9854629,12.7962321 L18.0237679,11.8345371 L16.9922294,12.8660755 C16.6483832,12.6597679 16.2349619,12.4526542 15.8223465,12.383885 L15.8223465,10.94 L14.4469619,10.94 Z M15.0661538,13.6907692 C16.2352308,13.6907692 17.1292308,14.5847692 17.1292308,15.7538462 C17.1292308,16.9229231 16.2352308,17.8169231 15.0661538,17.8169231 C13.8970769,17.8169231 13.0030769,16.9229231 13.0030769,15.7538462 C13.0030769,14.5847692 13.8970769,13.6907692 15.0661538,13.6907692 Z M15.0661538,15.0661538 C14.9801923,15.0661538 14.8942308,15.0876442 14.8136415,15.1252527 C14.7330529,15.1628606 14.6578365,15.2165865 14.5933654,15.2810577 C14.5288942,15.3455288 14.4751683,15.4207452 14.4375604,15.5013338 C14.3999519,15.5819231 14.3784615,15.6678846 14.3784615,15.7538462 C14.3784615,16.0117308 14.571875,16.2696154 14.8136415,16.3824396 C14.8942308,16.4200481 14.9801923,16.4415385 15.0661538,16.4415385 C15.41,16.4415385 15.7538462,16.0976923 15.7538462,15.7538462 C15.7538462,15.41 15.41,15.0661538 15.0661538,15.0661538 Z" id="Shape" fill="#000000" fill-rule="nonzero"></path>
                <polygon id="Path" points="0 0 22 0 22 22 0 22"></polygon>
            </g>
        </g>
    </g>
</svg>