<?xml version="1.0" encoding="UTF-8"?>
<svg width="43px" height="28px" viewBox="0 0 43 28" version="1.1" xmlns="http://www.w3.org/2000/svg" xmlns:xlink="http://www.w3.org/1999/xlink">
    <!-- Generator: sketchtool 60.1 (101010) - https://sketch.com -->
    <title>AC43DF31-ED25-4EAB-8CFE-8887C1206E5F</title>
    <desc>Created with sketchtool.</desc>
    <g id="Asset-Artboard-Page" stroke="none" stroke-width="1" fill="none" fill-rule="evenodd">
        <g id="Icons/Visa-Icons/Payment/Visa" fill-rule="nonzero">
            <rect id="bg" fill="#F8FAFB" x="0.881889764" y="0" width="41.6692913" height="28" rx="4"></rect>
            <g id="Visa" transform="translate(7.826772, 9.100000)">
                <polygon id="Shape" fill="#3C58BF" points="10.0006299 8.14909091 11.3859986 0.294545455 13.5506371 0.294545455 12.2085612 8.14909091"></polygon>
                <polygon id="Shape" fill="#293688" points="10.0006299 8.14909091 11.7756335 0.294545455 13.5506371 0.294545455 12.2085612 8.14909091"></polygon>
                <path d="M20.0445526,0.381818182 C19.6116249,0.207272727 18.9189406,0.0327272727 18.0530852,0.0327272727 C15.8884467,0.0327272727 14.3299069,1.12363636 14.3299069,2.69454545 C14.3299069,3.87272727 15.4122262,4.48363636 16.2780816,4.87636364 C17.143937,5.26909091 17.4036936,5.53090909 17.4036936,5.88 C17.4036936,6.40363636 16.7110093,6.66545455 16.1049105,6.66545455 C15.2390551,6.66545455 14.7628346,6.53454545 14.0268576,6.22909091 L13.7238082,6.09818182 L13.4207588,7.88727273 C13.940272,8.10545455 14.892713,8.32363636 15.8884467,8.32363636 C18.1829635,8.32363636 19.6982105,7.23272727 19.6982105,5.57454545 C19.6982105,4.65818182 19.1354044,3.96 17.8366213,3.39272727 C17.0573515,3 16.581131,2.78181818 16.581131,2.38909091 C16.581131,2.04 16.9707659,1.69090909 17.8366213,1.69090909 C18.5725984,1.69090909 19.0921117,1.82181818 19.4817466,1.99636364 L19.6982105,2.08363636 L20.0445526,0.381818182 L20.0445526,0.381818182 Z" id="Shape" fill="#3C58BF"></path>
                <path d="M20.0445526,0.381818182 C19.6116249,0.207272727 18.9189406,0.0327272727 18.0530852,0.0327272727 C15.8884467,0.0327272727 14.7195419,1.12363636 14.7195419,2.69454545 C14.7195419,3.87272727 15.4122262,4.48363636 16.2780816,4.87636364 C17.143937,5.26909091 17.4036936,5.53090909 17.4036936,5.88 C17.4036936,6.40363636 16.7110093,6.66545455 16.1049105,6.66545455 C15.2390551,6.66545455 14.7628346,6.53454545 14.0268576,6.22909091 L13.7238082,6.09818182 L13.4207588,7.88727273 C13.940272,8.10545455 14.892713,8.32363636 15.8884467,8.32363636 C18.1829635,8.32363636 19.6982105,7.23272727 19.6982105,5.57454545 C19.6982105,4.65818182 19.1354044,3.96 17.8366213,3.39272727 C17.0573515,3 16.581131,2.78181818 16.581131,2.38909091 C16.581131,2.04 16.9707659,1.69090909 17.8366213,1.69090909 C18.5725984,1.69090909 19.0921117,1.82181818 19.4817466,1.99636364 L19.6982105,2.08363636 L20.0445526,0.381818182 L20.0445526,0.381818182 Z" id="Shape" fill="#293688"></path>
                <path d="M23.7677309,0.294545455 C23.2482176,0.294545455 22.8585827,0.338181818 22.6421188,0.861818182 L19.3951611,8.14909091 L21.7329707,8.14909091 L22.1658984,6.84 L24.9366356,6.84 L25.1963923,8.14909091 L27.2744452,8.14909091 L25.4561489,0.294545455 L23.7677309,0.294545455 Z M22.7719971,5.53090909 C22.9018754,5.13818182 23.6378525,3.21818182 23.6378525,3.21818182 C23.6378525,3.21818182 23.8110236,2.73818182 23.9409019,2.43272727 L24.0707802,3.17454545 C24.0707802,3.17454545 24.5037079,5.13818182 24.5902935,5.57454545 L22.7719971,5.57454545 L22.7719971,5.53090909 Z" id="Shape" fill="#3C58BF"></path>
                <path d="M24.2872441,0.294545455 C23.7677309,0.294545455 23.3780959,0.338181818 23.1616321,0.861818182 L19.3951611,8.14909091 L21.7329707,8.14909091 L22.1658984,6.84 L24.9366356,6.84 L25.1963923,8.14909091 L27.2744452,8.14909091 L25.4561489,0.294545455 L24.2872441,0.294545455 Z M22.7719971,5.53090909 C22.9451682,5.09454545 23.6378525,3.21818182 23.6378525,3.21818182 C23.6378525,3.21818182 23.8110236,2.73818182 23.9409019,2.43272727 L24.0707802,3.17454545 C24.0707802,3.17454545 24.5037079,5.13818182 24.5902935,5.57454545 L22.7719971,5.57454545 L22.7719971,5.53090909 Z" id="Shape" fill="#293688"></path>
                <path d="M6.01769506,5.79272727 L5.80123121,4.65818182 C5.41159628,3.34909091 4.15610594,1.90909091 2.77073729,1.21090909 L4.71891195,8.19272727 L7.05672155,8.19272727 L10.5634359,0.338181818 L8.22562634,0.338181818 L6.01769506,5.79272727 Z" id="Shape" fill="#3C58BF"></path>
                <path d="M6.01769506,5.79272727 L5.80123121,4.65818182 C5.41159628,3.34909091 4.15610594,1.90909091 2.77073729,1.21090909 L4.71891195,8.19272727 L7.05672155,8.19272727 L10.5634359,0.338181818 L8.65855404,0.338181818 L6.01769506,5.79272727 Z" id="Shape" fill="#293688"></path>
                <path d="M0,0.294545455 L0.389634932,0.381818182 C3.16037223,1.03636364 5.06525412,2.69454545 5.80123121,4.65818182 L5.02196135,0.949090909 C4.89208304,0.425454545 4.5024481,0.294545455 4.02622763,0.294545455 L0,0.294545455 L0,0.294545455 Z" id="Shape" fill="#FFBC00"></path>
                <path d="M0,0.294545455 L0,0.294545455 C2.77073729,0.949090909 5.06525412,2.65090909 5.80123121,4.61454545 L5.06525412,1.51636364 C4.93537581,0.992727273 4.5024481,0.687272727 4.02622763,0.687272727 L0,0.294545455 Z" id="Shape" fill="#F7981D"></path>
                <path d="M0,0.294545455 L0,0.294545455 C2.77073729,0.949090909 5.06525412,2.65090909 5.80123121,4.61454545 L5.28171797,2.91272727 C5.15183966,2.38909091 4.97866858,1.86545455 4.37256979,1.64727273 L0,0.294545455 Z" id="Shape" fill="#ED7C00"></path>
                <g id="Group" transform="translate(2.814030, 1.145455)" fill="#051244">
                    <path d="M5.36830351,4.38545455 L3.89634932,2.90181818 L3.203665,4.56 L3.03049392,3.46909091 C2.64085898,2.16 1.38536865,0.72 0,0.0218181818 L1.94817466,7.00363636 L4.28598425,7.00363636 L5.36830351,4.38545455 Z" id="Shape"></path>
                    <polygon id="Shape" points="9.39453114 7.00363636 7.53294202 5.08363636 7.18659986 7.00363636"></polygon>
                    <path d="M14.3731997,4.29818182 L14.3731997,4.29818182 C14.5463708,4.47272727 14.6329563,4.60363636 14.5896636,4.77818182 C14.5896636,5.30181818 13.8969792,5.56363636 13.2908805,5.56363636 C12.4250251,5.56363636 11.9488046,5.43272727 11.2128275,5.12727273 L10.9097781,4.99636364 L10.6067287,6.78545455 C11.1262419,7.00363636 12.0786829,7.22181818 13.0744166,7.22181818 C14.4597853,7.22181818 15.5853973,6.82909091 16.2347888,6.13090909 L14.3731997,4.29818182 Z" id="Shape"></path>
                    <path d="M16.8841804,7.00363636 L18.9189406,7.00363636 L19.3518683,5.69454545 L22.1226056,5.69454545 L22.3823622,7.00363636 L24.4604152,7.00363636 L23.7244381,3.81818182 L21.1268719,1.28727273 L21.2567502,1.98545455 C21.2567502,1.98545455 21.6896779,3.94909091 21.7762634,4.38545455 L19.9579671,4.38545455 C20.1311382,3.94909091 20.8238225,2.07272727 20.8238225,2.07272727 C20.8238225,2.07272727 20.9969936,1.59272727 21.1268719,1.28727273" id="Shape"></path>
                </g>
            </g>
        </g>
    </g>
</svg>