<?xml version="1.0" encoding="UTF-8"?>
<svg width="24px" height="24px" viewBox="0 0 24 24" version="1.1" xmlns="http://www.w3.org/2000/svg" xmlns:xlink="http://www.w3.org/1999/xlink">
    <!-- Generator: Sketch 51.2 (57519) - http://www.bohemiancoding.com/sketch -->
    <title>icons/24/baseline-insert_chart-24px</title>
    <desc>Created with Sketch.</desc>
    <defs>
        <path d="M19,2.99999996 L4.99999997,2.99999996 C3.89999997,2.99999996 2.99999996,3.89999997 2.99999996,4.99999997 L2.99999996,19 C2.99999996,20.1 3.89999997,21 4.99999997,21 L19,21 C20.1,21 21,20.1 21,19 L21,4.99999997 C21,3.89999997 20.1,2.99999996 19,2.99999996 Z M8.99999999,17 L6.99999998,17 L6.99999998,9.99999999 L8.99999999,9.99999999 L8.99999999,17 Z M13,17 L11,17 L11,6.99999998 L13,6.99999998 L13,17 Z M17,17 L15,17 L15,13 L17,13 L17,17 Z" id="path-1"></path>
    </defs>
    <g id="icons/24/baseline-insert_chart-24px" stroke="none" stroke-width="1" fill="none" fill-rule="evenodd">
        <mask id="mask-2" fill="white">
            <use xlink:href="#path-1"></use>
        </mask>
        <g fill-rule="nonzero"></g>
        <g id="colors/dark" mask="url(#mask-2)" fill="#3F4352">
            <rect id="color" x="0" y="0" width="24" height="24"></rect>
        </g>
    </g>
</svg>