<?xml version="1.0" encoding="UTF-8"?>
<svg width="24px" height="24px" viewBox="0 0 24 24" version="1.1" xmlns="http://www.w3.org/2000/svg" xmlns:xlink="http://www.w3.org/1999/xlink">
    <!-- Generator: Sketch 51.2 (57519) - http://www.bohemiancoding.com/sketch -->
    <title>icons/24/baseline-check_circle_outline-24px</title>
    <desc>Created with Sketch.</desc>
    <defs>
        <path d="M16.59,7.57999998 L9.99999999,14.17 L6.40999998,10.59 L4.99999997,12 L9.99999999,17 L18,8.99999999 L16.59,7.57999998 Z M12,1.99999996 C6.47999998,1.99999996 1.99999996,6.47999998 1.99999996,12 C1.99999996,17.52 6.47999998,22 12,22 C17.52,22 22,17.52 22,12 C22,6.47999998 17.52,1.99999996 12,1.99999996 Z M12,20 C7.57999998,20 3.99999997,16.42 3.99999997,12 C3.99999997,7.57999998 7.57999998,3.99999997 12,3.99999997 C16.42,3.99999997 20,7.57999998 20,12 C20,16.42 16.42,20 12,20 Z" id="path-1"></path>
    </defs>
    <g id="icons/24/baseline-check_circle_outline-24px" stroke="none" stroke-width="1" fill="none" fill-rule="evenodd">
        <mask id="mask-2" fill="white">
            <use xlink:href="#path-1"></use>
        </mask>
        <g fill-rule="nonzero"></g>
        <g id="colors/dark" mask="url(#mask-2)" fill="#3F4352">
            <rect id="color" x="0" y="0" width="24" height="24"></rect>
        </g>
    </g>
</svg>