<?xml version="1.0" encoding="UTF-8"?>
<svg width="24px" height="24px" viewBox="0 0 24 24" version="1.1" xmlns="http://www.w3.org/2000/svg" xmlns:xlink="http://www.w3.org/1999/xlink">
    <!-- Generator: Sketch 51.2 (57519) - http://www.bohemiancoding.com/sketch -->
    <title>icons/24/baseline-phone-24px</title>
    <desc>Created with Sketch.</desc>
    <defs>
        <path d="M6.61999998,10.79 C8.05999998,13.62 10.38,15.93 13.21,17.38 L15.41,15.18 C15.68,14.91 16.08,14.82 16.43,14.94 C17.55,15.31 18.76,15.51 20,15.51 C20.55,15.51 21,15.96 21,16.51 L21,20 C21,20.55 20.55,21 20,21 C10.61,21 2.99999996,13.39 2.99999996,3.99999997 C2.99999996,3.44999996 3.44999996,2.99999996 3.99999997,2.99999996 L7.49999998,2.99999996 C8.04999998,2.99999996 8.49999999,3.44999996 8.49999999,3.99999997 C8.49999999,5.24999997 8.69999999,6.44999998 9.06999999,7.56999998 C9.17999999,7.91999998 9.09999999,8.30999998 8.81999999,8.58999999 L6.61999998,10.79 Z" id="path-1"></path>
    </defs>
    <g id="icons/24/baseline-phone-24px" stroke="none" stroke-width="1" fill="none" fill-rule="evenodd">
        <mask id="mask-2" fill="white">
            <use xlink:href="#path-1"></use>
        </mask>
        <g fill-rule="nonzero"></g>
        <g id="colors/dark" mask="url(#mask-2)" fill="#3F4352">
            <rect id="color" x="0" y="0" width="24" height="24"></rect>
        </g>
    </g>
</svg>