<?xml version="1.0" encoding="UTF-8"?>
<svg width="16px" height="16px" viewBox="0 0 16 16" version="1.1" xmlns="http://www.w3.org/2000/svg" xmlns:xlink="http://www.w3.org/1999/xlink">
    <!-- Generator: Sketch 51.2 (57519) - http://www.bohemiancoding.com/sketch -->
    <title>icons/sidebar/outline-stars-24px</title>
    <desc>Created with Sketch.</desc>
    <defs>
        <path d="M7.99333333,1.33333329 C4.31333331,1.33333329 1.33333329,4.31999998 1.33333329,8 C1.33333329,11.68 4.31333331,14.6666667 7.99333333,14.6666667 C11.68,14.6666667 14.6666667,11.68 14.6666667,8 C14.6666667,4.31999998 11.68,1.33333329 7.99333333,1.33333329 Z M12.98,6.10666665 L9.64000001,5.81999999 L8.30666667,2.67999997 C10.4466667,2.80666663 12.2466667,4.19333331 12.98,6.10666665 Z M9.60000001,10.28 L8,9.32000001 L6.40666666,10.28 L6.82666666,8.46666667 L5.41999998,7.24666666 L7.27333333,7.08666666 L8,5.37333332 L8.72666667,7.07999999 L10.58,7.24 L9.17333334,8.46 L9.60000001,10.28 Z M7.69333333,2.67999997 L6.35999999,5.82666665 L3.0133333,6.11333332 C3.74666664,4.19333331 5.54666665,2.79999997 7.69333333,2.67999997 Z M2.66666663,8 C2.66666663,7.57333333 2.71999997,7.15999999 2.81999997,6.75999999 L5.34666665,8.94666667 L4.60666665,12.1133334 C3.41999997,11.1333334 2.66666663,9.65333334 2.66666663,8 Z M5.22666665,12.5466667 L8,10.8733334 L10.7733334,12.54 C9.96000001,13.04 9.01333334,13.3333334 7.99333333,13.3333334 C6.97999999,13.3333334 6.03333332,13.04 5.22666665,12.5466667 Z M11.3933334,12.1133334 L10.6533333,8.94666667 L13.18,6.75999999 C13.2733334,7.15333333 13.3333334,7.57333333 13.3333334,8 C13.3333334,9.65333334 12.5733334,11.1333334 11.3933334,12.1133334 Z" id="path-1"></path>
    </defs>
    <g id="icons/sidebar/outline-stars-24px" stroke="none" stroke-width="1" fill="none" fill-rule="evenodd">
        <mask id="mask-2" fill="white">
            <use xlink:href="#path-1"></use>
        </mask>
        <g fill-rule="nonzero"></g>
        <g id="colors/dark" mask="url(#mask-2)" fill="#3F4352">
            <rect id="color" x="0" y="0" width="16" height="16"></rect>
        </g>
    </g>
</svg>