<?xml version="1.0" encoding="UTF-8"?>
<svg width="16px" height="16px" viewBox="0 0 16 16" version="1.1" xmlns="http://www.w3.org/2000/svg" xmlns:xlink="http://www.w3.org/1999/xlink">
    <!-- Generator: Sketch 51.2 (57519) - http://www.bohemiancoding.com/sketch -->
    <title>icons/sidebar/outline-group-24px</title>
    <desc>Created with Sketch.</desc>
    <defs>
        <path d="M5.64999999,9.37083334 C3.81699999,9.37083334 0.166666646,10.2873333 0.166666646,12.1125 L0.166666646,13.4833333 L11.1333333,13.4833333 L11.1333333,12.1125 C11.1333333,10.2873333 7.483,9.37083334 5.64999999,9.37083334 Z M1.99966665,11.9166667 C2.65766665,11.4623333 4.24783332,10.9375 5.64999999,10.9375 C7.05216666,10.9375 8.64233334,11.4623333 9.30033334,11.9166667 L1.99966665,11.9166667 Z M5.64999999,8 C7.16183333,8 8.39166667,6.77016666 8.39166667,5.25833333 C8.39166667,3.74649999 7.16183333,2.51666665 5.64999999,2.51666665 C4.13816666,2.51666665 2.90833332,3.74649999 2.90833332,5.25833333 C2.90833332,6.77016666 4.13816666,8 5.64999999,8 Z M5.64999999,4.08333332 C6.30016666,4.08333332 6.825,4.60816666 6.825,5.25833333 C6.825,5.90849999 6.30016666,6.43333333 5.64999999,6.43333333 C4.99983333,6.43333333 4.47499999,5.90849999 4.47499999,5.25833333 C4.47499999,4.60816666 4.99983333,4.08333332 5.64999999,4.08333332 Z M11.1646667,9.41783334 C12.0733333,10.0758333 12.7,10.9531667 12.7,12.1125 L12.7,13.4833333 L15.8333334,13.4833333 L15.8333334,12.1125 C15.8333334,10.5301667 13.0916667,9.62933334 11.1646667,9.41783334 Z M10.35,8 C11.8618333,8 13.0916667,6.77016666 13.0916667,5.25833333 C13.0916667,3.74649999 11.8618333,2.51666665 10.35,2.51666665 C9.92700001,2.51666665 9.53533334,2.61849999 9.175,2.79083332 C9.6685,3.48799999 9.95833334,4.34183332 9.95833334,5.25833333 C9.95833334,6.17483333 9.6685,7.02866666 9.175,7.72583333 C9.53533334,7.89816667 9.92700001,8 10.35,8 Z" id="path-1"></path>
    </defs>
    <g id="icons/sidebar/outline-group-24px" stroke="none" stroke-width="1" fill="none" fill-rule="evenodd">
        <mask id="mask-2" fill="white">
            <use xlink:href="#path-1"></use>
        </mask>
        <g fill-rule="nonzero"></g>
        <g id="colors/dark" mask="url(#mask-2)" fill="#3F4352">
            <rect id="color" x="0" y="0" width="16" height="16"></rect>
        </g>
    </g>
</svg>