<?xml version="1.0" encoding="UTF-8"?>
<svg width="16px" height="16px" viewBox="0 0 16 16" version="1.1" xmlns="http://www.w3.org/2000/svg" xmlns:xlink="http://www.w3.org/1999/xlink">
    <!-- Generator: Sketch 51.2 (57519) - http://www.bohemiancoding.com/sketch -->
    <title>icons/sidebar/outline-new_releases-24px</title>
    <desc>Created with Sketch.</desc>
    <defs>
        <path d="M15.869406,7.99975633 L14.1238287,6.01094282 L14.3670648,3.37826882 L11.7844689,2.79164037 L10.4323618,0.516666645 L8,1.56115144 L5.56763815,0.516666645 L4.21553112,2.79164037 L1.63293516,3.37111481 L1.87617135,6.00378881 L0.130594021,7.99975633 L1.87617135,9.98856984 L1.63293516,12.6283978 L4.21553112,13.2150263 L5.56763815,15.49 L8,14.4383612 L10.4323618,15.482846 L11.7844689,13.2078723 L14.3670648,12.6212438 L14.1238287,9.98856984 L15.869406,7.99975633 Z M12.6429495,9.50925148 L12.8289537,11.505219 L10.8687562,11.9487673 L9.8457334,13.6728826 L8,12.878788 L6.1542666,13.6728826 L5.13124382,11.9487673 L3.17104633,11.505219 L3.35705047,9.50209747 L2.03355947,7.99975633 L3.35705047,6.48310718 L3.17104633,4.49429367 L5.13124382,4.05789934 L6.1542666,2.33378403 L8,3.12072462 L9.8457334,2.32663002 L10.8687562,4.05074533 L12.8289537,4.49429367 L12.6429495,6.49026118 L13.9664405,7.99975633 L12.6429495,9.50925148 Z M7.28459946,10.145958 L8.71540054,10.145958 L8.71540054,11.576759 L7.28459946,11.576759 L7.28459946,10.145958 Z M7.28459946,4.42275361 L8.71540054,4.42275361 L8.71540054,8.71515687 L7.28459946,8.71515687 L7.28459946,4.42275361 Z" id="path-1"></path>
    </defs>
    <g id="icons/sidebar/outline-new_releases-24px" stroke="none" stroke-width="1" fill="none" fill-rule="evenodd">
        <mask id="mask-2" fill="white">
            <use xlink:href="#path-1"></use>
        </mask>
        <g fill-rule="nonzero"></g>
        <g id="colors/dark" mask="url(#mask-2)" fill="#3F4352">
            <rect id="color" x="0" y="0" width="16" height="16"></rect>
        </g>
    </g>
</svg>