<?xml version="1.0" encoding="UTF-8"?>
<svg width="16px" height="16px" viewBox="0 0 16 16" version="1.1" xmlns="http://www.w3.org/2000/svg" xmlns:xlink="http://www.w3.org/1999/xlink">
    <!-- Generator: Sketch 51.2 (57519) - http://www.bohemiancoding.com/sketch -->
    <title>icons/sidebar/outline-assessment-24px</title>
    <desc>Created with Sketch.</desc>
    <defs>
        <path d="M13.4463889,0.9975 L2.55361111,0.9975 C1.69775,0.9975 0.9975,1.69775 0.9975,2.55361111 L0.9975,13.4463889 C0.9975,14.30225 1.69775,15.0025 2.55361111,15.0025 L13.4463889,15.0025 C14.30225,15.0025 15.0025,14.30225 15.0025,13.4463889 L15.0025,2.55361111 C15.0025,1.69775 14.30225,0.9975 13.4463889,0.9975 Z M13.4463889,13.4463889 L2.55361111,13.4463889 L2.55361111,2.55361111 L13.4463889,2.55361111 L13.4463889,13.4463889 Z M4.10972222,6.44388889 L5.66583333,6.44388889 L5.66583333,11.8902778 L4.10972222,11.8902778 L4.10972222,6.44388889 Z M7.22194445,4.10972222 L8.77805555,4.10972222 L8.77805555,11.8902778 L7.22194445,11.8902778 L7.22194445,4.10972222 Z M10.3341666,8.77805555 L11.8902778,8.77805555 L11.8902778,11.8902778 L10.3341666,11.8902778 L10.3341666,8.77805555 Z" id="path-1"></path>
    </defs>
    <g id="icons/sidebar/outline-assessment-24px" stroke="none" stroke-width="1" fill="none" fill-rule="evenodd">
        <mask id="mask-2" fill="white">
            <use xlink:href="#path-1"></use>
        </mask>
        <g id="icons/sidebar/icons/24/outline-assessment-24px" fill-rule="nonzero"></g>
        <g id="colors/dark" mask="url(#mask-2)" fill="#3F4352">
            <rect id="color" x="0" y="0" width="16" height="16"></rect>
        </g>
    </g>
</svg>