<?xml version="1.0" encoding="UTF-8"?>
<svg width="16px" height="16px" viewBox="0 0 16 16" version="1.1" xmlns="http://www.w3.org/2000/svg" xmlns:xlink="http://www.w3.org/1999/xlink">
    <!-- Generator: Sketch 51.2 (57519) - http://www.bohemiancoding.com/sketch -->
    <title>icons/sidebar/outline-receipt-24px</title>
    <desc>Created with Sketch.</desc>
    <defs>
        <path d="M12.9166667,2.08333333 L11.8333333,1 L10.75,2.08333333 L9.66666667,1 L8.58333333,2.08333333 L7.5,1 L6.41666667,2.08333333 L5.33333333,1 L4.25,2.08333333 L3.16666667,1 L2.08333333,2.08333333 L1,1 L1,15.4444444 L2.08333333,14.3611111 L3.16666667,15.4444444 L4.25,14.3611111 L5.33333333,15.4444444 L6.41666667,14.3611111 L7.5,15.4444444 L8.58333333,14.3611111 L9.66666667,15.4444444 L10.75,14.3611111 L11.8333333,15.4444444 L12.9166667,14.3611111 L14,15.4444444 L14,1 L12.9166667,2.08333333 Z M12.5555556,13.3427778 L2.44444444,13.3427778 L2.44444444,3.10166667 L12.5555556,3.10166667 L12.5555556,13.3427778 Z M3.16666667,10.3888889 L11.8333333,10.3888889 L11.8333333,11.8333333 L3.16666667,11.8333333 L3.16666667,10.3888889 Z M3.16666667,7.5 L11.8333333,7.5 L11.8333333,8.94444444 L3.16666667,8.94444444 L3.16666667,7.5 Z M3.16666667,4.61111111 L11.8333333,4.61111111 L11.8333333,6.05555556 L3.16666667,6.05555556 L3.16666667,4.61111111 Z" id="path-1"></path>
    </defs>
    <g id="icons/sidebar/outline-receipt-24px" stroke="none" stroke-width="1" fill="none" fill-rule="evenodd">
        <mask id="mask-2" fill="white">
            <use xlink:href="#path-1"></use>
        </mask>
        <g fill-rule="nonzero"></g>
        <g id="colors/dark" mask="url(#mask-2)" fill="#3F4352">
            <rect id="color" x="0" y="0" width="16" height="16"></rect>
        </g>
    </g>
</svg>