<?xml version="1.0" encoding="UTF-8"?>
<svg width="16px" height="16px" viewBox="0 0 16 16" version="1.1" xmlns="http://www.w3.org/2000/svg" xmlns:xlink="http://www.w3.org/1999/xlink">
    <!-- Generator: Sketch 51.2 (57519) - http://www.bohemiancoding.com/sketch -->
    <title>icons/sidebar/outline-assignment-24px</title>
    <desc>Created with Sketch.</desc>
    <defs>
        <path d="M3.9975,11.202 L9.601,11.202 L9.601,12.803 L3.9975,12.803 L3.9975,11.202 Z M3.9975,8 L12.0025,8 L12.0025,9.601 L3.9975,9.601 L3.9975,8 Z M3.9975,4.798 L12.0025,4.798 L12.0025,6.399 L3.9975,6.399 L3.9975,4.798 Z M13.6035,1.596 L10.25741,1.596 C9.9212,0.66742 9.04065,-0.005 8,-0.005 C6.95935,-0.005 6.0788,0.66742 5.74259,1.596 L2.3965,1.596 C2.28443,1.596 2.180365,1.604005 2.0763,1.62802 C1.764105,1.69206 1.48393,1.85216 1.267795,2.068295 C1.123705,2.212385 1.00363,2.388495 0.92358,2.580615 C0.84353,2.76473 0.7955,2.97286 0.7955,3.197 L0.7955,14.404 C0.7955,14.620135 0.84353,14.83627 0.92358,15.02839 C1.00363,15.22051 1.123705,15.388615 1.267795,15.54071 C1.48393,15.756845 1.764105,15.916945 2.0763,15.980985 C2.180365,15.996995 2.28443,16.005 2.3965,16.005 L13.6035,16.005 C14.48405,16.005 15.2045,15.28455 15.2045,14.404 L15.2045,3.197 C15.2045,2.31645 14.48405,1.596 13.6035,1.596 Z M8,1.395875 C8.328205,1.395875 8.600375,1.668045 8.600375,1.99625 C8.600375,2.324455 8.328205,2.596625 8,2.596625 C7.671795,2.596625 7.399625,2.324455 7.399625,1.99625 C7.399625,1.668045 7.671795,1.395875 8,1.395875 Z M13.6035,14.404 L2.3965,14.404 L2.3965,3.197 L13.6035,3.197 L13.6035,14.404 Z" id="path-1"></path>
    </defs>
    <g id="icons/sidebar/outline-assignment-24px" stroke="none" stroke-width="1" fill="none" fill-rule="evenodd">
        <mask id="mask-2" fill="white">
            <use xlink:href="#path-1"></use>
        </mask>
        <g id="icons/sidebar/icons/24/outline-assignment-24px" fill-rule="nonzero"></g>
        <g id="colors/dark" mask="url(#mask-2)" fill="#3F4352">
            <rect id="color" x="0" y="0" width="16" height="16"></rect>
        </g>
    </g>
</svg>