<?xml version="1.0" encoding="UTF-8"?>
<svg width="16px" height="16px" viewBox="0 0 16 16" version="1.1" xmlns="http://www.w3.org/2000/svg" xmlns:xlink="http://www.w3.org/1999/xlink">
    <!-- Generator: Sketch 51.2 (57519) - http://www.bohemiancoding.com/sketch -->
    <title>icons/sidebar/outline-work_outline-24px</title>
    <desc>Created with Sketch.</desc>
    <defs>
        <path d="M9.46666667,3.63333332 L9.46666667,2.16666665 L6.53333333,2.16666665 L6.53333333,3.63333332 L9.46666667,3.63333332 Z M2.13333332,5.09999999 L2.13333332,13.1666667 L13.8666667,13.1666667 L13.8666667,5.09999999 L2.13333332,5.09999999 Z M13.8666667,3.63333332 C14.6806667,3.63333332 15.3333334,4.28599999 15.3333334,5.09999999 L15.3333334,13.1666667 C15.3333334,13.9806667 14.6806667,14.6333334 13.8666667,14.6333334 L2.13333332,14.6333334 C1.31933331,14.6333334 0.666666646,13.9806667 0.666666646,13.1666667 L0.673999979,5.09999999 C0.673999979,4.28599999 1.31933331,3.63333332 2.13333332,3.63333332 L5.06666666,3.63333332 L5.06666666,2.16666665 C5.06666666,1.35266665 5.71933333,0.699999978 6.53333333,0.699999978 L9.46666667,0.699999978 C10.2806667,0.699999978 10.9333333,1.35266665 10.9333333,2.16666665 L10.9333333,3.63333332 L13.8666667,3.63333332 Z" id="path-1"></path>
    </defs>
    <g id="icons/sidebar/outline-work_outline-24px" stroke="none" stroke-width="1" fill="none" fill-rule="evenodd">
        <mask id="mask-2" fill="white">
            <use xlink:href="#path-1"></use>
        </mask>
        <g fill-rule="nonzero"></g>
        <g id="colors/dark" mask="url(#mask-2)" fill="#3F4352">
            <rect id="color" x="0" y="0" width="16" height="16"></rect>
        </g>
    </g>
</svg>